G04 #@! TF.GenerationSoftware,KiCad,Pcbnew,(5.1.8)-1*
G04 #@! TF.CreationDate,2021-11-09T16:08:29-07:00*
G04 #@! TF.ProjectId,SPI 28c256,53504920-3238-4633-9235-362e6b696361,rev?*
G04 #@! TF.SameCoordinates,Original*
G04 #@! TF.FileFunction,Copper,L2,Bot*
G04 #@! TF.FilePolarity,Positive*
%FSLAX46Y46*%
G04 Gerber Fmt 4.6, Leading zero omitted, Abs format (unit mm)*
G04 Created by KiCad (PCBNEW (5.1.8)-1) date 2021-11-09 16:08:29*
%MOMM*%
%LPD*%
G01*
G04 APERTURE LIST*
G04 #@! TA.AperFunction,ComponentPad*
%ADD10O,1.700000X1.700000*%
G04 #@! TD*
G04 #@! TA.AperFunction,ComponentPad*
%ADD11R,1.700000X1.700000*%
G04 #@! TD*
G04 #@! TA.AperFunction,ComponentPad*
%ADD12O,1.600000X1.600000*%
G04 #@! TD*
G04 #@! TA.AperFunction,ComponentPad*
%ADD13R,1.600000X1.600000*%
G04 #@! TD*
G04 #@! TA.AperFunction,ComponentPad*
%ADD14C,1.600000*%
G04 #@! TD*
G04 #@! TA.AperFunction,ComponentPad*
%ADD15R,2.000000X1.440000*%
G04 #@! TD*
G04 #@! TA.AperFunction,ComponentPad*
%ADD16O,2.000000X1.440000*%
G04 #@! TD*
G04 #@! TA.AperFunction,ViaPad*
%ADD17C,0.800000*%
G04 #@! TD*
G04 #@! TA.AperFunction,Conductor*
%ADD18C,0.330200*%
G04 #@! TD*
G04 #@! TA.AperFunction,Conductor*
%ADD19C,0.250000*%
G04 #@! TD*
G04 APERTURE END LIST*
D10*
G04 #@! TO.P,J1,6*
G04 #@! TO.N,/SO*
X175768000Y-130302000D03*
G04 #@! TO.P,J1,5*
G04 #@! TO.N,/SI*
X175768000Y-127762000D03*
G04 #@! TO.P,J1,4*
G04 #@! TO.N,/SCK*
X175768000Y-125222000D03*
G04 #@! TO.P,J1,3*
G04 #@! TO.N,/CS*
X175768000Y-122682000D03*
G04 #@! TO.P,J1,2*
G04 #@! TO.N,/GND*
X175768000Y-120142000D03*
D11*
G04 #@! TO.P,J1,1*
G04 #@! TO.N,/5+*
X175768000Y-117602000D03*
G04 #@! TD*
D12*
G04 #@! TO.P,U0,28*
G04 #@! TO.N,/D7*
X188468000Y-97282000D03*
G04 #@! TO.P,U0,14*
G04 #@! TO.N,/SO*
X180848000Y-130302000D03*
G04 #@! TO.P,U0,27*
G04 #@! TO.N,/D6*
X188468000Y-99822000D03*
G04 #@! TO.P,U0,13*
G04 #@! TO.N,/SI*
X180848000Y-127762000D03*
G04 #@! TO.P,U0,26*
G04 #@! TO.N,/D5*
X188468000Y-102362000D03*
G04 #@! TO.P,U0,12*
G04 #@! TO.N,/SCK*
X180848000Y-125222000D03*
G04 #@! TO.P,U0,25*
G04 #@! TO.N,/D4*
X188468000Y-104902000D03*
G04 #@! TO.P,U0,11*
G04 #@! TO.N,/CS*
X180848000Y-122682000D03*
G04 #@! TO.P,U0,24*
G04 #@! TO.N,/D3*
X188468000Y-107442000D03*
G04 #@! TO.P,U0,10*
G04 #@! TO.N,/GND*
X180848000Y-120142000D03*
G04 #@! TO.P,U0,23*
G04 #@! TO.N,/D2*
X188468000Y-109982000D03*
G04 #@! TO.P,U0,9*
G04 #@! TO.N,/5+*
X180848000Y-117602000D03*
G04 #@! TO.P,U0,22*
G04 #@! TO.N,/D1*
X188468000Y-112522000D03*
G04 #@! TO.P,U0,8*
G04 #@! TO.N,/A7*
X180848000Y-115062000D03*
G04 #@! TO.P,U0,21*
G04 #@! TO.N,/D0*
X188468000Y-115062000D03*
G04 #@! TO.P,U0,7*
G04 #@! TO.N,/A6*
X180848000Y-112522000D03*
G04 #@! TO.P,U0,20*
G04 #@! TO.N,Net-(U0-Pad20)*
X188468000Y-117602000D03*
G04 #@! TO.P,U0,6*
G04 #@! TO.N,/A5*
X180848000Y-109982000D03*
G04 #@! TO.P,U0,19*
G04 #@! TO.N,Net-(U0-Pad19)*
X188468000Y-120142000D03*
G04 #@! TO.P,U0,5*
G04 #@! TO.N,/A4*
X180848000Y-107442000D03*
G04 #@! TO.P,U0,18*
G04 #@! TO.N,/5+*
X188468000Y-122682000D03*
G04 #@! TO.P,U0,4*
G04 #@! TO.N,/A3*
X180848000Y-104902000D03*
G04 #@! TO.P,U0,17*
G04 #@! TO.N,/GND*
X188468000Y-125222000D03*
G04 #@! TO.P,U0,3*
G04 #@! TO.N,/A2*
X180848000Y-102362000D03*
G04 #@! TO.P,U0,16*
G04 #@! TO.N,/GND*
X188468000Y-127762000D03*
G04 #@! TO.P,U0,2*
G04 #@! TO.N,/A1*
X180848000Y-99822000D03*
G04 #@! TO.P,U0,15*
G04 #@! TO.N,/GND*
X188468000Y-130302000D03*
D13*
G04 #@! TO.P,U0,1*
G04 #@! TO.N,/A0*
X180848000Y-97282000D03*
G04 #@! TD*
G04 #@! TO.P,U1,1*
G04 #@! TO.N,/RD*
X216916000Y-97282000D03*
D12*
G04 #@! TO.P,U1,15*
G04 #@! TO.N,/5+*
X224536000Y-130302000D03*
G04 #@! TO.P,U1,2*
G04 #@! TO.N,/WR*
X216916000Y-99822000D03*
G04 #@! TO.P,U1,16*
G04 #@! TO.N,/GND*
X224536000Y-127762000D03*
G04 #@! TO.P,U1,3*
G04 #@! TO.N,/CS_M*
X216916000Y-102362000D03*
G04 #@! TO.P,U1,17*
G04 #@! TO.N,/GND*
X224536000Y-125222000D03*
G04 #@! TO.P,U1,4*
G04 #@! TO.N,/POWER_EN*
X216916000Y-104902000D03*
G04 #@! TO.P,U1,18*
G04 #@! TO.N,/5+*
X224536000Y-122682000D03*
G04 #@! TO.P,U1,5*
G04 #@! TO.N,Net-(U1-Pad5)*
X216916000Y-107442000D03*
G04 #@! TO.P,U1,19*
G04 #@! TO.N,Net-(U1-Pad19)*
X224536000Y-120142000D03*
G04 #@! TO.P,U1,6*
G04 #@! TO.N,Net-(U1-Pad6)*
X216916000Y-109982000D03*
G04 #@! TO.P,U1,20*
G04 #@! TO.N,Net-(U1-Pad20)*
X224536000Y-117602000D03*
G04 #@! TO.P,U1,7*
G04 #@! TO.N,Net-(U1-Pad7)*
X216916000Y-112522000D03*
G04 #@! TO.P,U1,21*
G04 #@! TO.N,/A8*
X224536000Y-115062000D03*
G04 #@! TO.P,U1,8*
G04 #@! TO.N,Net-(U1-Pad8)*
X216916000Y-115062000D03*
G04 #@! TO.P,U1,22*
G04 #@! TO.N,/A9*
X224536000Y-112522000D03*
G04 #@! TO.P,U1,9*
G04 #@! TO.N,/5+*
X216916000Y-117602000D03*
G04 #@! TO.P,U1,23*
G04 #@! TO.N,/A10*
X224536000Y-109982000D03*
G04 #@! TO.P,U1,10*
G04 #@! TO.N,/GND*
X216916000Y-120142000D03*
G04 #@! TO.P,U1,24*
G04 #@! TO.N,/A11*
X224536000Y-107442000D03*
G04 #@! TO.P,U1,11*
G04 #@! TO.N,/CS*
X216916000Y-122682000D03*
G04 #@! TO.P,U1,25*
G04 #@! TO.N,/A12*
X224536000Y-104902000D03*
G04 #@! TO.P,U1,12*
G04 #@! TO.N,/SCK*
X216916000Y-125222000D03*
G04 #@! TO.P,U1,26*
G04 #@! TO.N,/A13*
X224536000Y-102362000D03*
G04 #@! TO.P,U1,13*
G04 #@! TO.N,/SI*
X216916000Y-127762000D03*
G04 #@! TO.P,U1,27*
G04 #@! TO.N,/A14*
X224536000Y-99822000D03*
G04 #@! TO.P,U1,14*
G04 #@! TO.N,/SO*
X216916000Y-130302000D03*
G04 #@! TO.P,U1,28*
G04 #@! TO.N,Net-(U1-Pad28)*
X224536000Y-97282000D03*
G04 #@! TD*
D14*
G04 #@! TO.P,R1,1*
G04 #@! TO.N,/CS_M*
X228854000Y-122174000D03*
D12*
G04 #@! TO.P,R1,2*
G04 #@! TO.N,/5+*
X228854000Y-132334000D03*
G04 #@! TD*
G04 #@! TO.P,R2,2*
G04 #@! TO.N,/5+*
X228854000Y-106934000D03*
D14*
G04 #@! TO.P,R2,1*
G04 #@! TO.N,/RD*
X228854000Y-96774000D03*
G04 #@! TD*
G04 #@! TO.P,R3,1*
G04 #@! TO.N,/WR*
X228854000Y-109474000D03*
D12*
G04 #@! TO.P,R3,2*
G04 #@! TO.N,/5+*
X228854000Y-119634000D03*
G04 #@! TD*
D15*
G04 #@! TO.P,U2,1*
G04 #@! TO.N,/A14*
X195072000Y-97282000D03*
D16*
G04 #@! TO.P,U2,28*
G04 #@! TO.N,/POWER_EN*
X210312000Y-97282000D03*
G04 #@! TO.P,U2,2*
G04 #@! TO.N,/A12*
X195072000Y-99822000D03*
G04 #@! TO.P,U2,27*
G04 #@! TO.N,/WR*
X210312000Y-99822000D03*
G04 #@! TO.P,U2,3*
G04 #@! TO.N,/A7*
X195072000Y-102362000D03*
G04 #@! TO.P,U2,26*
G04 #@! TO.N,/A13*
X210312000Y-102362000D03*
G04 #@! TO.P,U2,4*
G04 #@! TO.N,/A6*
X195072000Y-104902000D03*
G04 #@! TO.P,U2,25*
G04 #@! TO.N,/A8*
X210312000Y-104902000D03*
G04 #@! TO.P,U2,5*
G04 #@! TO.N,/A5*
X195072000Y-107442000D03*
G04 #@! TO.P,U2,24*
G04 #@! TO.N,/A9*
X210312000Y-107442000D03*
G04 #@! TO.P,U2,6*
G04 #@! TO.N,/A4*
X195072000Y-109982000D03*
G04 #@! TO.P,U2,23*
G04 #@! TO.N,/A11*
X210312000Y-109982000D03*
G04 #@! TO.P,U2,7*
G04 #@! TO.N,/A3*
X195072000Y-112522000D03*
G04 #@! TO.P,U2,22*
G04 #@! TO.N,/RD*
X210312000Y-112522000D03*
G04 #@! TO.P,U2,8*
G04 #@! TO.N,/A2*
X195072000Y-115062000D03*
G04 #@! TO.P,U2,21*
G04 #@! TO.N,/A10*
X210312000Y-115062000D03*
G04 #@! TO.P,U2,9*
G04 #@! TO.N,/A1*
X195072000Y-117602000D03*
G04 #@! TO.P,U2,20*
G04 #@! TO.N,/CS_M*
X210312000Y-117602000D03*
G04 #@! TO.P,U2,10*
G04 #@! TO.N,/A0*
X195072000Y-120142000D03*
G04 #@! TO.P,U2,19*
G04 #@! TO.N,/D7*
X210312000Y-120142000D03*
G04 #@! TO.P,U2,11*
G04 #@! TO.N,/D0*
X195072000Y-122682000D03*
G04 #@! TO.P,U2,18*
G04 #@! TO.N,/D6*
X210312000Y-122682000D03*
G04 #@! TO.P,U2,12*
G04 #@! TO.N,/D1*
X195072000Y-125222000D03*
G04 #@! TO.P,U2,17*
G04 #@! TO.N,/D5*
X210312000Y-125222000D03*
G04 #@! TO.P,U2,13*
G04 #@! TO.N,/D2*
X195072000Y-127762000D03*
G04 #@! TO.P,U2,16*
G04 #@! TO.N,/D4*
X210312000Y-127762000D03*
G04 #@! TO.P,U2,14*
G04 #@! TO.N,/GND*
X195072000Y-130302000D03*
G04 #@! TO.P,U2,15*
G04 #@! TO.N,/D3*
X210312000Y-130302000D03*
G04 #@! TD*
D17*
G04 #@! TO.N,/5+*
X182880000Y-117602000D03*
X184150000Y-122682000D03*
G04 #@! TO.N,/A9*
X221234000Y-108712000D03*
G04 #@! TO.N,/A12*
X202692000Y-104902000D03*
G04 #@! TO.N,/A14*
X199898000Y-97282000D03*
G04 #@! TD*
D18*
G04 #@! TO.N,/5+*
X223266000Y-130302000D02*
X224536000Y-130302000D01*
X222758000Y-129794000D02*
X223266000Y-130302000D01*
X222758000Y-123190000D02*
X222758000Y-129794000D01*
X223266000Y-122682000D02*
X222758000Y-123190000D01*
X224536000Y-122682000D02*
X223266000Y-122682000D01*
X228854000Y-106934000D02*
X227330000Y-106934000D01*
X227330000Y-106934000D02*
X226822000Y-107442000D01*
X226822000Y-120396000D02*
X224536000Y-122682000D01*
X226822000Y-119634000D02*
X228854000Y-119634000D01*
X226822000Y-107442000D02*
X226822000Y-119634000D01*
X226822000Y-119634000D02*
X226822000Y-120396000D01*
X226822000Y-130302000D02*
X228854000Y-132334000D01*
X224536000Y-130302000D02*
X226822000Y-130302000D01*
G04 #@! TO.N,/GND*
X188468000Y-130302000D02*
X195072000Y-130302000D01*
X188468000Y-125222000D02*
X188468000Y-130302000D01*
X218694000Y-131064000D02*
X218694000Y-121920000D01*
X218186000Y-131572000D02*
X218694000Y-131064000D01*
X209042000Y-131572000D02*
X218186000Y-131572000D01*
X207772000Y-130302000D02*
X209042000Y-131572000D01*
X218694000Y-121920000D02*
X216916000Y-120142000D01*
X195072000Y-130302000D02*
X207772000Y-130302000D01*
X186944000Y-125222000D02*
X188468000Y-125222000D01*
X185420000Y-123698000D02*
X186944000Y-125222000D01*
X185420000Y-121412000D02*
X185420000Y-123698000D01*
X184150000Y-120142000D02*
X185420000Y-121412000D01*
X180848000Y-120142000D02*
X184150000Y-120142000D01*
D19*
G04 #@! TO.N,/D7*
X191262000Y-97282000D02*
X188468000Y-97282000D01*
X192532000Y-98552000D02*
X191262000Y-97282000D01*
X197612000Y-98552000D02*
X192532000Y-98552000D01*
X203650010Y-104590010D02*
X197612000Y-98552000D01*
X203650010Y-115004010D02*
X203650010Y-104590010D01*
X208788000Y-120142000D02*
X203650010Y-115004010D01*
X210312000Y-120142000D02*
X208788000Y-120142000D01*
G04 #@! TO.N,/D6*
X208788000Y-122682000D02*
X210312000Y-122682000D01*
X203200000Y-117094000D02*
X208788000Y-122682000D01*
X203200000Y-106680000D02*
X203200000Y-117094000D01*
X197612000Y-101092000D02*
X203200000Y-106680000D01*
X192532000Y-101092000D02*
X197612000Y-101092000D01*
X191262000Y-99822000D02*
X192532000Y-101092000D01*
X188468000Y-99822000D02*
X191262000Y-99822000D01*
G04 #@! TO.N,/D5*
X202692000Y-108712000D02*
X201549000Y-107569000D01*
X202692000Y-119126000D02*
X202692000Y-108712000D01*
X208788000Y-125222000D02*
X202692000Y-119126000D01*
X210312000Y-125222000D02*
X208788000Y-125222000D01*
X201549000Y-107569000D02*
X201676000Y-107696000D01*
X197612000Y-103632000D02*
X201549000Y-107569000D01*
X192532000Y-103632000D02*
X197612000Y-103632000D01*
X191262000Y-102362000D02*
X192532000Y-103632000D01*
X188468000Y-102362000D02*
X191262000Y-102362000D01*
G04 #@! TO.N,/D4*
X208788000Y-127762000D02*
X210312000Y-127762000D01*
X202184000Y-121158000D02*
X208788000Y-127762000D01*
X202184000Y-110744000D02*
X202184000Y-121158000D01*
X197612000Y-106172000D02*
X202184000Y-110744000D01*
X192532000Y-106172000D02*
X197612000Y-106172000D01*
X191262000Y-104902000D02*
X192532000Y-106172000D01*
X188468000Y-104902000D02*
X191262000Y-104902000D01*
G04 #@! TO.N,/D3*
X208788000Y-130302000D02*
X210312000Y-130302000D01*
X201676000Y-123190000D02*
X208788000Y-130302000D01*
X201676000Y-112776000D02*
X201676000Y-123190000D01*
X197612000Y-108712000D02*
X201676000Y-112776000D01*
X192532000Y-108712000D02*
X197612000Y-108712000D01*
X191262000Y-107442000D02*
X192532000Y-108712000D01*
X188468000Y-107442000D02*
X191262000Y-107442000D01*
G04 #@! TO.N,/D2*
X196596000Y-127762000D02*
X195072000Y-127762000D01*
X198374000Y-125984000D02*
X196596000Y-127762000D01*
X198374000Y-112014000D02*
X198374000Y-125984000D01*
X192532000Y-111252000D02*
X197612000Y-111252000D01*
X197612000Y-111252000D02*
X198374000Y-112014000D01*
X191262000Y-109982000D02*
X192532000Y-111252000D01*
X188468000Y-109982000D02*
X191262000Y-109982000D01*
G04 #@! TO.N,/D1*
X197866000Y-123952000D02*
X196596000Y-125222000D01*
X197612000Y-113792000D02*
X197866000Y-114046000D01*
X192532000Y-113792000D02*
X197612000Y-113792000D01*
X191262000Y-112522000D02*
X192532000Y-113792000D01*
X196596000Y-125222000D02*
X195072000Y-125222000D01*
X197866000Y-114046000D02*
X197866000Y-123952000D01*
X188468000Y-112522000D02*
X191262000Y-112522000D01*
G04 #@! TO.N,/D0*
X196596000Y-122682000D02*
X195072000Y-122682000D01*
X197358000Y-121920000D02*
X196596000Y-122682000D01*
X197358000Y-117094000D02*
X197358000Y-121920000D01*
X196596000Y-116332000D02*
X197358000Y-117094000D01*
X192532000Y-116332000D02*
X196596000Y-116332000D01*
X191262000Y-115062000D02*
X192532000Y-116332000D01*
X188468000Y-115062000D02*
X191262000Y-115062000D01*
G04 #@! TO.N,/RD*
X211582000Y-112522000D02*
X210312000Y-112522000D01*
X212090000Y-112014000D02*
X211582000Y-112522000D01*
X212090000Y-99314000D02*
X212090000Y-112014000D01*
X215646000Y-97282000D02*
X213614000Y-99314000D01*
X216916000Y-97282000D02*
X215646000Y-97282000D01*
X212090000Y-99314000D02*
X213614000Y-99314000D01*
G04 #@! TO.N,/A9*
X223012000Y-112522000D02*
X221234000Y-110744000D01*
X221234000Y-110744000D02*
X221234000Y-108712000D01*
X224536000Y-112522000D02*
X223012000Y-112522000D01*
G04 #@! TO.N,/A12*
X195072000Y-99822000D02*
X197612000Y-99822000D01*
X197612000Y-99822000D02*
X202692000Y-104902000D01*
G04 #@! TO.N,/A14*
X199898000Y-97282000D02*
X195072000Y-97282000D01*
G04 #@! TO.N,/CS_M*
X215392000Y-102362000D02*
X216916000Y-102362000D01*
X212598000Y-116586000D02*
X212598000Y-103632000D01*
X211582000Y-117602000D02*
X212598000Y-116586000D01*
X214122000Y-103632000D02*
X215392000Y-102362000D01*
X210312000Y-117602000D02*
X211582000Y-117602000D01*
X212598000Y-103632000D02*
X214122000Y-103632000D01*
G04 #@! TO.N,/POWER_EN*
X210312000Y-97282000D02*
X213360000Y-97282000D01*
X213360000Y-97282000D02*
X214884000Y-95758000D01*
X214884000Y-95758000D02*
X219456000Y-95758000D01*
X219456000Y-95758000D02*
X220218000Y-96520000D01*
X220218000Y-96520000D02*
X220218000Y-104394000D01*
X219710000Y-104902000D02*
X216916000Y-104902000D01*
X220218000Y-104394000D02*
X219710000Y-104902000D01*
G04 #@! TD*
M02*
