G04 #@! TF.GenerationSoftware,KiCad,Pcbnew,(5.1.8)-1*
G04 #@! TF.CreationDate,2021-11-09T16:08:29-07:00*
G04 #@! TF.ProjectId,SPI 28c256,53504920-3238-4633-9235-362e6b696361,rev?*
G04 #@! TF.SameCoordinates,Original*
G04 #@! TF.FileFunction,Soldermask,Bot*
G04 #@! TF.FilePolarity,Negative*
%FSLAX46Y46*%
G04 Gerber Fmt 4.6, Leading zero omitted, Abs format (unit mm)*
G04 Created by KiCad (PCBNEW (5.1.8)-1) date 2021-11-09 16:08:29*
%MOMM*%
%LPD*%
G01*
G04 APERTURE LIST*
%ADD10O,1.700000X1.700000*%
%ADD11R,1.700000X1.700000*%
%ADD12O,1.600000X1.600000*%
%ADD13R,1.600000X1.600000*%
%ADD14C,1.600000*%
%ADD15R,2.000000X1.440000*%
%ADD16O,2.000000X1.440000*%
G04 APERTURE END LIST*
D10*
G04 #@! TO.C,J1*
X175768000Y-130302000D03*
X175768000Y-127762000D03*
X175768000Y-125222000D03*
X175768000Y-122682000D03*
X175768000Y-120142000D03*
D11*
X175768000Y-117602000D03*
G04 #@! TD*
D12*
G04 #@! TO.C,U0*
X188468000Y-97282000D03*
X180848000Y-130302000D03*
X188468000Y-99822000D03*
X180848000Y-127762000D03*
X188468000Y-102362000D03*
X180848000Y-125222000D03*
X188468000Y-104902000D03*
X180848000Y-122682000D03*
X188468000Y-107442000D03*
X180848000Y-120142000D03*
X188468000Y-109982000D03*
X180848000Y-117602000D03*
X188468000Y-112522000D03*
X180848000Y-115062000D03*
X188468000Y-115062000D03*
X180848000Y-112522000D03*
X188468000Y-117602000D03*
X180848000Y-109982000D03*
X188468000Y-120142000D03*
X180848000Y-107442000D03*
X188468000Y-122682000D03*
X180848000Y-104902000D03*
X188468000Y-125222000D03*
X180848000Y-102362000D03*
X188468000Y-127762000D03*
X180848000Y-99822000D03*
X188468000Y-130302000D03*
D13*
X180848000Y-97282000D03*
G04 #@! TD*
G04 #@! TO.C,U1*
X216916000Y-97282000D03*
D12*
X224536000Y-130302000D03*
X216916000Y-99822000D03*
X224536000Y-127762000D03*
X216916000Y-102362000D03*
X224536000Y-125222000D03*
X216916000Y-104902000D03*
X224536000Y-122682000D03*
X216916000Y-107442000D03*
X224536000Y-120142000D03*
X216916000Y-109982000D03*
X224536000Y-117602000D03*
X216916000Y-112522000D03*
X224536000Y-115062000D03*
X216916000Y-115062000D03*
X224536000Y-112522000D03*
X216916000Y-117602000D03*
X224536000Y-109982000D03*
X216916000Y-120142000D03*
X224536000Y-107442000D03*
X216916000Y-122682000D03*
X224536000Y-104902000D03*
X216916000Y-125222000D03*
X224536000Y-102362000D03*
X216916000Y-127762000D03*
X224536000Y-99822000D03*
X216916000Y-130302000D03*
X224536000Y-97282000D03*
G04 #@! TD*
D14*
G04 #@! TO.C,R1*
X228854000Y-122174000D03*
D12*
X228854000Y-132334000D03*
G04 #@! TD*
G04 #@! TO.C,R2*
X228854000Y-106934000D03*
D14*
X228854000Y-96774000D03*
G04 #@! TD*
G04 #@! TO.C,R3*
X228854000Y-109474000D03*
D12*
X228854000Y-119634000D03*
G04 #@! TD*
D15*
G04 #@! TO.C,U2*
X195072000Y-97282000D03*
D16*
X210312000Y-97282000D03*
X195072000Y-99822000D03*
X210312000Y-99822000D03*
X195072000Y-102362000D03*
X210312000Y-102362000D03*
X195072000Y-104902000D03*
X210312000Y-104902000D03*
X195072000Y-107442000D03*
X210312000Y-107442000D03*
X195072000Y-109982000D03*
X210312000Y-109982000D03*
X195072000Y-112522000D03*
X210312000Y-112522000D03*
X195072000Y-115062000D03*
X210312000Y-115062000D03*
X195072000Y-117602000D03*
X210312000Y-117602000D03*
X195072000Y-120142000D03*
X210312000Y-120142000D03*
X195072000Y-122682000D03*
X210312000Y-122682000D03*
X195072000Y-125222000D03*
X210312000Y-125222000D03*
X195072000Y-127762000D03*
X210312000Y-127762000D03*
X195072000Y-130302000D03*
X210312000Y-130302000D03*
G04 #@! TD*
M02*
