G04 #@! TF.GenerationSoftware,KiCad,Pcbnew,(5.1.8)-1*
G04 #@! TF.CreationDate,2021-11-09T16:08:29-07:00*
G04 #@! TF.ProjectId,SPI 28c256,53504920-3238-4633-9235-362e6b696361,rev?*
G04 #@! TF.SameCoordinates,Original*
G04 #@! TF.FileFunction,Legend,Top*
G04 #@! TF.FilePolarity,Positive*
%FSLAX46Y46*%
G04 Gerber Fmt 4.6, Leading zero omitted, Abs format (unit mm)*
G04 Created by KiCad (PCBNEW (5.1.8)-1) date 2021-11-09 16:08:29*
%MOMM*%
%LPD*%
G01*
G04 APERTURE LIST*
%ADD10C,0.150000*%
%ADD11C,0.120000*%
G04 APERTURE END LIST*
D10*
X177769290Y-130569304D02*
X177863633Y-130600752D01*
X178020871Y-130600752D01*
X178083766Y-130569304D01*
X178115214Y-130537857D01*
X178146661Y-130474961D01*
X178146661Y-130412066D01*
X178115214Y-130349171D01*
X178083766Y-130317723D01*
X178020871Y-130286276D01*
X177895080Y-130254828D01*
X177832185Y-130223380D01*
X177800738Y-130191933D01*
X177769290Y-130129038D01*
X177769290Y-130066142D01*
X177800738Y-130003247D01*
X177832185Y-129971800D01*
X177895080Y-129940352D01*
X178052319Y-129940352D01*
X178146661Y-129971800D01*
X178555480Y-129940352D02*
X178681271Y-129940352D01*
X178744166Y-129971800D01*
X178807061Y-130034695D01*
X178838509Y-130160485D01*
X178838509Y-130380619D01*
X178807061Y-130506409D01*
X178744166Y-130569304D01*
X178681271Y-130600752D01*
X178555480Y-130600752D01*
X178492585Y-130569304D01*
X178429690Y-130506409D01*
X178398242Y-130380619D01*
X178398242Y-130160485D01*
X178429690Y-130034695D01*
X178492585Y-129971800D01*
X178555480Y-129940352D01*
X177769290Y-128029304D02*
X177863633Y-128060752D01*
X178020871Y-128060752D01*
X178083766Y-128029304D01*
X178115214Y-127997857D01*
X178146661Y-127934961D01*
X178146661Y-127872066D01*
X178115214Y-127809171D01*
X178083766Y-127777723D01*
X178020871Y-127746276D01*
X177895080Y-127714828D01*
X177832185Y-127683380D01*
X177800738Y-127651933D01*
X177769290Y-127589038D01*
X177769290Y-127526142D01*
X177800738Y-127463247D01*
X177832185Y-127431800D01*
X177895080Y-127400352D01*
X178052319Y-127400352D01*
X178146661Y-127431800D01*
X178429690Y-128060752D02*
X178429690Y-127400352D01*
X177769290Y-125489304D02*
X177863633Y-125520752D01*
X178020871Y-125520752D01*
X178083766Y-125489304D01*
X178115214Y-125457857D01*
X178146661Y-125394961D01*
X178146661Y-125332066D01*
X178115214Y-125269171D01*
X178083766Y-125237723D01*
X178020871Y-125206276D01*
X177895080Y-125174828D01*
X177832185Y-125143380D01*
X177800738Y-125111933D01*
X177769290Y-125049038D01*
X177769290Y-124986142D01*
X177800738Y-124923247D01*
X177832185Y-124891800D01*
X177895080Y-124860352D01*
X178052319Y-124860352D01*
X178146661Y-124891800D01*
X178807061Y-125457857D02*
X178775614Y-125489304D01*
X178681271Y-125520752D01*
X178618376Y-125520752D01*
X178524033Y-125489304D01*
X178461138Y-125426409D01*
X178429690Y-125363514D01*
X178398242Y-125237723D01*
X178398242Y-125143380D01*
X178429690Y-125017590D01*
X178461138Y-124954695D01*
X178524033Y-124891800D01*
X178618376Y-124860352D01*
X178681271Y-124860352D01*
X178775614Y-124891800D01*
X178807061Y-124923247D01*
X179090090Y-125520752D02*
X179090090Y-124860352D01*
X179467461Y-125520752D02*
X179184433Y-125143380D01*
X179467461Y-124860352D02*
X179090090Y-125237723D01*
X178178109Y-122917857D02*
X178146661Y-122949304D01*
X178052319Y-122980752D01*
X177989423Y-122980752D01*
X177895080Y-122949304D01*
X177832185Y-122886409D01*
X177800738Y-122823514D01*
X177769290Y-122697723D01*
X177769290Y-122603380D01*
X177800738Y-122477590D01*
X177832185Y-122414695D01*
X177895080Y-122351800D01*
X177989423Y-122320352D01*
X178052319Y-122320352D01*
X178146661Y-122351800D01*
X178178109Y-122383247D01*
X178429690Y-122949304D02*
X178524033Y-122980752D01*
X178681271Y-122980752D01*
X178744166Y-122949304D01*
X178775614Y-122917857D01*
X178807061Y-122854961D01*
X178807061Y-122792066D01*
X178775614Y-122729171D01*
X178744166Y-122697723D01*
X178681271Y-122666276D01*
X178555480Y-122634828D01*
X178492585Y-122603380D01*
X178461138Y-122571933D01*
X178429690Y-122509038D01*
X178429690Y-122446142D01*
X178461138Y-122383247D01*
X178492585Y-122351800D01*
X178555480Y-122320352D01*
X178712719Y-122320352D01*
X178807061Y-122351800D01*
X178146661Y-119811800D02*
X178083766Y-119780352D01*
X177989423Y-119780352D01*
X177895080Y-119811800D01*
X177832185Y-119874695D01*
X177800738Y-119937590D01*
X177769290Y-120063380D01*
X177769290Y-120157723D01*
X177800738Y-120283514D01*
X177832185Y-120346409D01*
X177895080Y-120409304D01*
X177989423Y-120440752D01*
X178052319Y-120440752D01*
X178146661Y-120409304D01*
X178178109Y-120377857D01*
X178178109Y-120157723D01*
X178052319Y-120157723D01*
X178461138Y-120440752D02*
X178461138Y-119780352D01*
X178838509Y-120440752D01*
X178838509Y-119780352D01*
X179152985Y-120440752D02*
X179152985Y-119780352D01*
X179310223Y-119780352D01*
X179404566Y-119811800D01*
X179467461Y-119874695D01*
X179498909Y-119937590D01*
X179530357Y-120063380D01*
X179530357Y-120157723D01*
X179498909Y-120283514D01*
X179467461Y-120346409D01*
X179404566Y-120409304D01*
X179310223Y-120440752D01*
X179152985Y-120440752D01*
X181629928Y-118617261D02*
X181629928Y-118397128D01*
X181975852Y-118302785D02*
X181975852Y-118617261D01*
X181315452Y-118617261D01*
X181315452Y-118302785D01*
X181975852Y-118019757D02*
X181315452Y-118019757D01*
X181787166Y-117799623D01*
X181315452Y-117579490D01*
X181975852Y-117579490D01*
X181975852Y-117265014D02*
X181315452Y-117265014D01*
X181787166Y-117044880D01*
X181315452Y-116824747D01*
X181975852Y-116824747D01*
X181912957Y-115629738D02*
X181944404Y-115661185D01*
X181975852Y-115755528D01*
X181975852Y-115818423D01*
X181944404Y-115912766D01*
X181881509Y-115975661D01*
X181818614Y-116007109D01*
X181692823Y-116038557D01*
X181598480Y-116038557D01*
X181472690Y-116007109D01*
X181409795Y-115975661D01*
X181346900Y-115912766D01*
X181315452Y-115818423D01*
X181315452Y-115755528D01*
X181346900Y-115661185D01*
X181378347Y-115629738D01*
X181315452Y-115220919D02*
X181315452Y-115095128D01*
X181346900Y-115032233D01*
X181409795Y-114969338D01*
X181535585Y-114937890D01*
X181755719Y-114937890D01*
X181881509Y-114969338D01*
X181944404Y-115032233D01*
X181975852Y-115095128D01*
X181975852Y-115220919D01*
X181944404Y-115283814D01*
X181881509Y-115346709D01*
X181755719Y-115378157D01*
X181535585Y-115378157D01*
X181409795Y-115346709D01*
X181346900Y-115283814D01*
X181315452Y-115220919D01*
X181975852Y-114654861D02*
X181315452Y-114654861D01*
X181787166Y-114434728D01*
X181315452Y-114214595D01*
X181975852Y-114214595D01*
X181975852Y-113900119D02*
X181315452Y-113900119D01*
X181315452Y-113648538D01*
X181346900Y-113585642D01*
X181378347Y-113554195D01*
X181441242Y-113522747D01*
X181535585Y-113522747D01*
X181598480Y-113554195D01*
X181629928Y-113585642D01*
X181661376Y-113648538D01*
X181661376Y-113900119D01*
X181315452Y-113239719D02*
X181850061Y-113239719D01*
X181912957Y-113208271D01*
X181944404Y-113176823D01*
X181975852Y-113113928D01*
X181975852Y-112988138D01*
X181944404Y-112925242D01*
X181912957Y-112893795D01*
X181850061Y-112862347D01*
X181315452Y-112862347D01*
X181315452Y-112642214D02*
X181315452Y-112264842D01*
X181975852Y-112453528D02*
X181315452Y-112453528D01*
X181629928Y-112044709D02*
X181629928Y-111824576D01*
X181975852Y-111730233D02*
X181975852Y-112044709D01*
X181315452Y-112044709D01*
X181315452Y-111730233D01*
X181975852Y-111069833D02*
X181661376Y-111289966D01*
X181975852Y-111447204D02*
X181315452Y-111447204D01*
X181315452Y-111195623D01*
X181346900Y-111132728D01*
X181378347Y-111101280D01*
X181441242Y-111069833D01*
X181535585Y-111069833D01*
X181598480Y-111101280D01*
X181629928Y-111132728D01*
X181661376Y-111195623D01*
X181661376Y-111447204D01*
X181944404Y-110818252D02*
X181975852Y-110723909D01*
X181975852Y-110566671D01*
X181944404Y-110503776D01*
X181912957Y-110472328D01*
X181850061Y-110440880D01*
X181787166Y-110440880D01*
X181724271Y-110472328D01*
X181692823Y-110503776D01*
X181661376Y-110566671D01*
X181629928Y-110692461D01*
X181598480Y-110755357D01*
X181567033Y-110786804D01*
X181504138Y-110818252D01*
X181441242Y-110818252D01*
X181378347Y-110786804D01*
X181346900Y-110755357D01*
X181315452Y-110692461D01*
X181315452Y-110535223D01*
X181346900Y-110440880D01*
X183085004Y-118648709D02*
X183116452Y-118554366D01*
X183116452Y-118397128D01*
X183085004Y-118334233D01*
X183053557Y-118302785D01*
X182990661Y-118271338D01*
X182927766Y-118271338D01*
X182864871Y-118302785D01*
X182833423Y-118334233D01*
X182801976Y-118397128D01*
X182770528Y-118522919D01*
X182739080Y-118585814D01*
X182707633Y-118617261D01*
X182644738Y-118648709D01*
X182581842Y-118648709D01*
X182518947Y-118617261D01*
X182487500Y-118585814D01*
X182456052Y-118522919D01*
X182456052Y-118365680D01*
X182487500Y-118271338D01*
X183116452Y-117988309D02*
X182456052Y-117988309D01*
X182456052Y-117736728D01*
X182487500Y-117673833D01*
X182518947Y-117642385D01*
X182581842Y-117610938D01*
X182676185Y-117610938D01*
X182739080Y-117642385D01*
X182770528Y-117673833D01*
X182801976Y-117736728D01*
X182801976Y-117988309D01*
X183116452Y-117327909D02*
X182456052Y-117327909D01*
X182864871Y-116510271D02*
X182864871Y-116007109D01*
X182676185Y-115692633D02*
X182864871Y-115189471D01*
X183053557Y-115692633D01*
X182518947Y-114403280D02*
X182487500Y-114371833D01*
X182456052Y-114308938D01*
X182456052Y-114151700D01*
X182487500Y-114088804D01*
X182518947Y-114057357D01*
X182581842Y-114025909D01*
X182644738Y-114025909D01*
X182739080Y-114057357D01*
X183116452Y-114434728D01*
X183116452Y-114025909D01*
X182739080Y-113648538D02*
X182707633Y-113711433D01*
X182676185Y-113742880D01*
X182613290Y-113774328D01*
X182581842Y-113774328D01*
X182518947Y-113742880D01*
X182487500Y-113711433D01*
X182456052Y-113648538D01*
X182456052Y-113522747D01*
X182487500Y-113459852D01*
X182518947Y-113428404D01*
X182581842Y-113396957D01*
X182613290Y-113396957D01*
X182676185Y-113428404D01*
X182707633Y-113459852D01*
X182739080Y-113522747D01*
X182739080Y-113648538D01*
X182770528Y-113711433D01*
X182801976Y-113742880D01*
X182864871Y-113774328D01*
X182990661Y-113774328D01*
X183053557Y-113742880D01*
X183085004Y-113711433D01*
X183116452Y-113648538D01*
X183116452Y-113522747D01*
X183085004Y-113459852D01*
X183053557Y-113428404D01*
X182990661Y-113396957D01*
X182864871Y-113396957D01*
X182801976Y-113428404D01*
X182770528Y-113459852D01*
X182739080Y-113522747D01*
X183053557Y-112736557D02*
X183085004Y-112768004D01*
X183116452Y-112862347D01*
X183116452Y-112925242D01*
X183085004Y-113019585D01*
X183022109Y-113082480D01*
X182959214Y-113113928D01*
X182833423Y-113145376D01*
X182739080Y-113145376D01*
X182613290Y-113113928D01*
X182550395Y-113082480D01*
X182487500Y-113019585D01*
X182456052Y-112925242D01*
X182456052Y-112862347D01*
X182487500Y-112768004D01*
X182518947Y-112736557D01*
X182518947Y-112484976D02*
X182487500Y-112453528D01*
X182456052Y-112390633D01*
X182456052Y-112233395D01*
X182487500Y-112170500D01*
X182518947Y-112139052D01*
X182581842Y-112107604D01*
X182644738Y-112107604D01*
X182739080Y-112139052D01*
X183116452Y-112516423D01*
X183116452Y-112107604D01*
X182456052Y-111510100D02*
X182456052Y-111824576D01*
X182770528Y-111856023D01*
X182739080Y-111824576D01*
X182707633Y-111761680D01*
X182707633Y-111604442D01*
X182739080Y-111541547D01*
X182770528Y-111510100D01*
X182833423Y-111478652D01*
X182990661Y-111478652D01*
X183053557Y-111510100D01*
X183085004Y-111541547D01*
X183116452Y-111604442D01*
X183116452Y-111761680D01*
X183085004Y-111824576D01*
X183053557Y-111856023D01*
X182456052Y-110912595D02*
X182456052Y-111038385D01*
X182487500Y-111101280D01*
X182518947Y-111132728D01*
X182613290Y-111195623D01*
X182739080Y-111227071D01*
X182990661Y-111227071D01*
X183053557Y-111195623D01*
X183085004Y-111164176D01*
X183116452Y-111101280D01*
X183116452Y-110975490D01*
X183085004Y-110912595D01*
X183053557Y-110881147D01*
X182990661Y-110849700D01*
X182833423Y-110849700D01*
X182770528Y-110881147D01*
X182739080Y-110912595D01*
X182707633Y-110975490D01*
X182707633Y-111101280D01*
X182739080Y-111164176D01*
X182770528Y-111195623D01*
X182833423Y-111227071D01*
X183116452Y-110063509D02*
X182456052Y-110063509D01*
X182456052Y-109811928D01*
X182487500Y-109749033D01*
X182518947Y-109717585D01*
X182581842Y-109686138D01*
X182676185Y-109686138D01*
X182739080Y-109717585D01*
X182770528Y-109749033D01*
X182801976Y-109811928D01*
X182801976Y-110063509D01*
X183116452Y-109025738D02*
X182801976Y-109245871D01*
X183116452Y-109403109D02*
X182456052Y-109403109D01*
X182456052Y-109151528D01*
X182487500Y-109088633D01*
X182518947Y-109057185D01*
X182581842Y-109025738D01*
X182676185Y-109025738D01*
X182739080Y-109057185D01*
X182770528Y-109088633D01*
X182801976Y-109151528D01*
X182801976Y-109403109D01*
X182456052Y-108616919D02*
X182456052Y-108491128D01*
X182487500Y-108428233D01*
X182550395Y-108365338D01*
X182676185Y-108333890D01*
X182896319Y-108333890D01*
X183022109Y-108365338D01*
X183085004Y-108428233D01*
X183116452Y-108491128D01*
X183116452Y-108616919D01*
X183085004Y-108679814D01*
X183022109Y-108742709D01*
X182896319Y-108774157D01*
X182676185Y-108774157D01*
X182550395Y-108742709D01*
X182487500Y-108679814D01*
X182456052Y-108616919D01*
X182487500Y-107704938D02*
X182456052Y-107767833D01*
X182456052Y-107862176D01*
X182487500Y-107956519D01*
X182550395Y-108019414D01*
X182613290Y-108050861D01*
X182739080Y-108082309D01*
X182833423Y-108082309D01*
X182959214Y-108050861D01*
X183022109Y-108019414D01*
X183085004Y-107956519D01*
X183116452Y-107862176D01*
X183116452Y-107799280D01*
X183085004Y-107704938D01*
X183053557Y-107673490D01*
X182833423Y-107673490D01*
X182833423Y-107799280D01*
X183116452Y-107013090D02*
X182801976Y-107233223D01*
X183116452Y-107390461D02*
X182456052Y-107390461D01*
X182456052Y-107138880D01*
X182487500Y-107075985D01*
X182518947Y-107044538D01*
X182581842Y-107013090D01*
X182676185Y-107013090D01*
X182739080Y-107044538D01*
X182770528Y-107075985D01*
X182801976Y-107138880D01*
X182801976Y-107390461D01*
X182927766Y-106761509D02*
X182927766Y-106447033D01*
X183116452Y-106824404D02*
X182456052Y-106604271D01*
X183116452Y-106384138D01*
X183116452Y-106164004D02*
X182456052Y-106164004D01*
X182927766Y-105943871D01*
X182456052Y-105723738D01*
X183116452Y-105723738D01*
X183116452Y-105409261D02*
X182456052Y-105409261D01*
X182927766Y-105189128D01*
X182456052Y-104968995D01*
X183116452Y-104968995D01*
X182770528Y-104654519D02*
X182770528Y-104434385D01*
X183116452Y-104340042D02*
X183116452Y-104654519D01*
X182456052Y-104654519D01*
X182456052Y-104340042D01*
X183116452Y-103679642D02*
X182801976Y-103899776D01*
X183116452Y-104057014D02*
X182456052Y-104057014D01*
X182456052Y-103805433D01*
X182487500Y-103742538D01*
X182518947Y-103711090D01*
X182581842Y-103679642D01*
X182676185Y-103679642D01*
X182739080Y-103711090D01*
X182770528Y-103742538D01*
X182801976Y-103805433D01*
X182801976Y-104057014D01*
X184194157Y-118239890D02*
X184225604Y-118271338D01*
X184257052Y-118365680D01*
X184257052Y-118428576D01*
X184225604Y-118522919D01*
X184162709Y-118585814D01*
X184099814Y-118617261D01*
X183974023Y-118648709D01*
X183879680Y-118648709D01*
X183753890Y-118617261D01*
X183690995Y-118585814D01*
X183628100Y-118522919D01*
X183596652Y-118428576D01*
X183596652Y-118365680D01*
X183628100Y-118271338D01*
X183659547Y-118239890D01*
X184257052Y-117862519D02*
X184225604Y-117925414D01*
X184194157Y-117956861D01*
X184131261Y-117988309D01*
X183942576Y-117988309D01*
X183879680Y-117956861D01*
X183848233Y-117925414D01*
X183816785Y-117862519D01*
X183816785Y-117768176D01*
X183848233Y-117705280D01*
X183879680Y-117673833D01*
X183942576Y-117642385D01*
X184131261Y-117642385D01*
X184194157Y-117673833D01*
X184225604Y-117705280D01*
X184257052Y-117768176D01*
X184257052Y-117862519D01*
X183816785Y-117359357D02*
X184477185Y-117359357D01*
X183848233Y-117359357D02*
X183816785Y-117296461D01*
X183816785Y-117170671D01*
X183848233Y-117107776D01*
X183879680Y-117076328D01*
X183942576Y-117044880D01*
X184131261Y-117044880D01*
X184194157Y-117076328D01*
X184225604Y-117107776D01*
X184257052Y-117170671D01*
X184257052Y-117296461D01*
X184225604Y-117359357D01*
X183816785Y-116824747D02*
X184257052Y-116667509D01*
X183816785Y-116510271D02*
X184257052Y-116667509D01*
X184414290Y-116730404D01*
X184445738Y-116761852D01*
X184477185Y-116824747D01*
X184257052Y-116258690D02*
X183816785Y-116258690D01*
X183942576Y-116258690D02*
X183879680Y-116227242D01*
X183848233Y-116195795D01*
X183816785Y-116132900D01*
X183816785Y-116070004D01*
X184257052Y-115849871D02*
X183816785Y-115849871D01*
X183596652Y-115849871D02*
X183628100Y-115881319D01*
X183659547Y-115849871D01*
X183628100Y-115818423D01*
X183596652Y-115849871D01*
X183659547Y-115849871D01*
X183816785Y-115252366D02*
X184351395Y-115252366D01*
X184414290Y-115283814D01*
X184445738Y-115315261D01*
X184477185Y-115378157D01*
X184477185Y-115472500D01*
X184445738Y-115535395D01*
X184225604Y-115252366D02*
X184257052Y-115315261D01*
X184257052Y-115441052D01*
X184225604Y-115503947D01*
X184194157Y-115535395D01*
X184131261Y-115566842D01*
X183942576Y-115566842D01*
X183879680Y-115535395D01*
X183848233Y-115503947D01*
X183816785Y-115441052D01*
X183816785Y-115315261D01*
X183848233Y-115252366D01*
X184257052Y-114937890D02*
X183596652Y-114937890D01*
X184257052Y-114654861D02*
X183911128Y-114654861D01*
X183848233Y-114686309D01*
X183816785Y-114749204D01*
X183816785Y-114843547D01*
X183848233Y-114906442D01*
X183879680Y-114937890D01*
X183816785Y-114434728D02*
X183816785Y-114183147D01*
X183596652Y-114340385D02*
X184162709Y-114340385D01*
X184225604Y-114308938D01*
X184257052Y-114246042D01*
X184257052Y-114183147D01*
X184508633Y-113271166D02*
X184477185Y-113302614D01*
X184382842Y-113365509D01*
X184319947Y-113396957D01*
X184225604Y-113428404D01*
X184068366Y-113459852D01*
X183942576Y-113459852D01*
X183785338Y-113428404D01*
X183690995Y-113396957D01*
X183628100Y-113365509D01*
X183533757Y-113302614D01*
X183502309Y-113271166D01*
X184194157Y-112642214D02*
X184225604Y-112673661D01*
X184257052Y-112768004D01*
X184257052Y-112830900D01*
X184225604Y-112925242D01*
X184162709Y-112988138D01*
X184099814Y-113019585D01*
X183974023Y-113051033D01*
X183879680Y-113051033D01*
X183753890Y-113019585D01*
X183690995Y-112988138D01*
X183628100Y-112925242D01*
X183596652Y-112830900D01*
X183596652Y-112768004D01*
X183628100Y-112673661D01*
X183659547Y-112642214D01*
X184508633Y-112422080D02*
X184477185Y-112390633D01*
X184382842Y-112327738D01*
X184319947Y-112296290D01*
X184225604Y-112264842D01*
X184068366Y-112233395D01*
X183942576Y-112233395D01*
X183785338Y-112264842D01*
X183690995Y-112296290D01*
X183628100Y-112327738D01*
X183533757Y-112390633D01*
X183502309Y-112422080D01*
X183659547Y-111447204D02*
X183628100Y-111415757D01*
X183596652Y-111352861D01*
X183596652Y-111195623D01*
X183628100Y-111132728D01*
X183659547Y-111101280D01*
X183722442Y-111069833D01*
X183785338Y-111069833D01*
X183879680Y-111101280D01*
X184257052Y-111478652D01*
X184257052Y-111069833D01*
X183596652Y-110661014D02*
X183596652Y-110598119D01*
X183628100Y-110535223D01*
X183659547Y-110503776D01*
X183722442Y-110472328D01*
X183848233Y-110440880D01*
X184005471Y-110440880D01*
X184131261Y-110472328D01*
X184194157Y-110503776D01*
X184225604Y-110535223D01*
X184257052Y-110598119D01*
X184257052Y-110661014D01*
X184225604Y-110723909D01*
X184194157Y-110755357D01*
X184131261Y-110786804D01*
X184005471Y-110818252D01*
X183848233Y-110818252D01*
X183722442Y-110786804D01*
X183659547Y-110755357D01*
X183628100Y-110723909D01*
X183596652Y-110661014D01*
X183659547Y-110189300D02*
X183628100Y-110157852D01*
X183596652Y-110094957D01*
X183596652Y-109937719D01*
X183628100Y-109874823D01*
X183659547Y-109843376D01*
X183722442Y-109811928D01*
X183785338Y-109811928D01*
X183879680Y-109843376D01*
X184257052Y-110220747D01*
X184257052Y-109811928D01*
X184257052Y-109182976D02*
X184257052Y-109560347D01*
X184257052Y-109371661D02*
X183596652Y-109371661D01*
X183690995Y-109434557D01*
X183753890Y-109497452D01*
X183785338Y-109560347D01*
X183911128Y-108396785D02*
X183911128Y-108176652D01*
X184257052Y-108082309D02*
X184257052Y-108396785D01*
X183596652Y-108396785D01*
X183596652Y-108082309D01*
X184257052Y-107799280D02*
X183596652Y-107799280D01*
X184068366Y-107579147D01*
X183596652Y-107359014D01*
X184257052Y-107359014D01*
X184257052Y-107044538D02*
X183596652Y-107044538D01*
X184068366Y-106824404D01*
X183596652Y-106604271D01*
X184257052Y-106604271D01*
X184957385Y-118680157D02*
X185397652Y-118554366D01*
X185083176Y-118428576D01*
X185397652Y-118302785D01*
X184957385Y-118176995D01*
X184957385Y-117988309D02*
X185397652Y-117862519D01*
X185083176Y-117736728D01*
X185397652Y-117610938D01*
X184957385Y-117485147D01*
X184957385Y-117296461D02*
X185397652Y-117170671D01*
X185083176Y-117044880D01*
X185397652Y-116919090D01*
X184957385Y-116793300D01*
X185334757Y-116541719D02*
X185366204Y-116510271D01*
X185397652Y-116541719D01*
X185366204Y-116573166D01*
X185334757Y-116541719D01*
X185397652Y-116541719D01*
X185397652Y-116227242D02*
X184737252Y-116227242D01*
X185397652Y-115944214D02*
X185051728Y-115944214D01*
X184988833Y-115975661D01*
X184957385Y-116038557D01*
X184957385Y-116132900D01*
X184988833Y-116195795D01*
X185020280Y-116227242D01*
X185397652Y-115535395D02*
X185366204Y-115598290D01*
X185334757Y-115629738D01*
X185271861Y-115661185D01*
X185083176Y-115661185D01*
X185020280Y-115629738D01*
X184988833Y-115598290D01*
X184957385Y-115535395D01*
X184957385Y-115441052D01*
X184988833Y-115378157D01*
X185020280Y-115346709D01*
X185083176Y-115315261D01*
X185271861Y-115315261D01*
X185334757Y-115346709D01*
X185366204Y-115378157D01*
X185397652Y-115441052D01*
X185397652Y-115535395D01*
X185397652Y-115032233D02*
X184957385Y-115032233D01*
X185020280Y-115032233D02*
X184988833Y-115000785D01*
X184957385Y-114937890D01*
X184957385Y-114843547D01*
X184988833Y-114780652D01*
X185051728Y-114749204D01*
X185397652Y-114749204D01*
X185051728Y-114749204D02*
X184988833Y-114717757D01*
X184957385Y-114654861D01*
X184957385Y-114560519D01*
X184988833Y-114497623D01*
X185051728Y-114466176D01*
X185397652Y-114466176D01*
X185366204Y-113900119D02*
X185397652Y-113963014D01*
X185397652Y-114088804D01*
X185366204Y-114151700D01*
X185303309Y-114183147D01*
X185051728Y-114183147D01*
X184988833Y-114151700D01*
X184957385Y-114088804D01*
X184957385Y-113963014D01*
X184988833Y-113900119D01*
X185051728Y-113868671D01*
X185114623Y-113868671D01*
X185177519Y-114183147D01*
X185397652Y-113585642D02*
X184737252Y-113585642D01*
X184988833Y-113585642D02*
X184957385Y-113522747D01*
X184957385Y-113396957D01*
X184988833Y-113334061D01*
X185020280Y-113302614D01*
X185083176Y-113271166D01*
X185271861Y-113271166D01*
X185334757Y-113302614D01*
X185366204Y-113334061D01*
X185397652Y-113396957D01*
X185397652Y-113522747D01*
X185366204Y-113585642D01*
X185397652Y-112988138D02*
X184957385Y-112988138D01*
X185083176Y-112988138D02*
X185020280Y-112956690D01*
X184988833Y-112925242D01*
X184957385Y-112862347D01*
X184957385Y-112799452D01*
X185366204Y-112327738D02*
X185397652Y-112390633D01*
X185397652Y-112516423D01*
X185366204Y-112579319D01*
X185303309Y-112610766D01*
X185051728Y-112610766D01*
X184988833Y-112579319D01*
X184957385Y-112516423D01*
X184957385Y-112390633D01*
X184988833Y-112327738D01*
X185051728Y-112296290D01*
X185114623Y-112296290D01*
X185177519Y-112610766D01*
X184957385Y-112076157D02*
X185397652Y-111950366D01*
X185083176Y-111824576D01*
X185397652Y-111698785D01*
X184957385Y-111572995D01*
X185020280Y-111227071D02*
X184988833Y-111289966D01*
X184957385Y-111321414D01*
X184894490Y-111352861D01*
X184863042Y-111352861D01*
X184800147Y-111321414D01*
X184768700Y-111289966D01*
X184737252Y-111227071D01*
X184737252Y-111101280D01*
X184768700Y-111038385D01*
X184800147Y-111006938D01*
X184863042Y-110975490D01*
X184894490Y-110975490D01*
X184957385Y-111006938D01*
X184988833Y-111038385D01*
X185020280Y-111101280D01*
X185020280Y-111227071D01*
X185051728Y-111289966D01*
X185083176Y-111321414D01*
X185146071Y-111352861D01*
X185271861Y-111352861D01*
X185334757Y-111321414D01*
X185366204Y-111289966D01*
X185397652Y-111227071D01*
X185397652Y-111101280D01*
X185366204Y-111038385D01*
X185334757Y-111006938D01*
X185271861Y-110975490D01*
X185146071Y-110975490D01*
X185083176Y-111006938D01*
X185051728Y-111038385D01*
X185020280Y-111101280D01*
X184737252Y-110566671D02*
X184737252Y-110503776D01*
X184768700Y-110440880D01*
X184800147Y-110409433D01*
X184863042Y-110377985D01*
X184988833Y-110346538D01*
X185146071Y-110346538D01*
X185271861Y-110377985D01*
X185334757Y-110409433D01*
X185366204Y-110440880D01*
X185397652Y-110503776D01*
X185397652Y-110566671D01*
X185366204Y-110629566D01*
X185334757Y-110661014D01*
X185271861Y-110692461D01*
X185146071Y-110723909D01*
X184988833Y-110723909D01*
X184863042Y-110692461D01*
X184800147Y-110661014D01*
X184768700Y-110629566D01*
X184737252Y-110566671D01*
X185020280Y-109969166D02*
X184988833Y-110032061D01*
X184957385Y-110063509D01*
X184894490Y-110094957D01*
X184863042Y-110094957D01*
X184800147Y-110063509D01*
X184768700Y-110032061D01*
X184737252Y-109969166D01*
X184737252Y-109843376D01*
X184768700Y-109780480D01*
X184800147Y-109749033D01*
X184863042Y-109717585D01*
X184894490Y-109717585D01*
X184957385Y-109749033D01*
X184988833Y-109780480D01*
X185020280Y-109843376D01*
X185020280Y-109969166D01*
X185051728Y-110032061D01*
X185083176Y-110063509D01*
X185146071Y-110094957D01*
X185271861Y-110094957D01*
X185334757Y-110063509D01*
X185366204Y-110032061D01*
X185397652Y-109969166D01*
X185397652Y-109843376D01*
X185366204Y-109780480D01*
X185334757Y-109749033D01*
X185271861Y-109717585D01*
X185146071Y-109717585D01*
X185083176Y-109749033D01*
X185051728Y-109780480D01*
X185020280Y-109843376D01*
X185020280Y-109340214D02*
X184988833Y-109403109D01*
X184957385Y-109434557D01*
X184894490Y-109466004D01*
X184863042Y-109466004D01*
X184800147Y-109434557D01*
X184768700Y-109403109D01*
X184737252Y-109340214D01*
X184737252Y-109214423D01*
X184768700Y-109151528D01*
X184800147Y-109120080D01*
X184863042Y-109088633D01*
X184894490Y-109088633D01*
X184957385Y-109120080D01*
X184988833Y-109151528D01*
X185020280Y-109214423D01*
X185020280Y-109340214D01*
X185051728Y-109403109D01*
X185083176Y-109434557D01*
X185146071Y-109466004D01*
X185271861Y-109466004D01*
X185334757Y-109434557D01*
X185366204Y-109403109D01*
X185397652Y-109340214D01*
X185397652Y-109214423D01*
X185366204Y-109151528D01*
X185334757Y-109120080D01*
X185271861Y-109088633D01*
X185146071Y-109088633D01*
X185083176Y-109120080D01*
X185051728Y-109151528D01*
X185020280Y-109214423D01*
X185334757Y-108805604D02*
X185366204Y-108774157D01*
X185397652Y-108805604D01*
X185366204Y-108837052D01*
X185334757Y-108805604D01*
X185397652Y-108805604D01*
X185366204Y-108208100D02*
X185397652Y-108270995D01*
X185397652Y-108396785D01*
X185366204Y-108459680D01*
X185334757Y-108491128D01*
X185271861Y-108522576D01*
X185083176Y-108522576D01*
X185020280Y-108491128D01*
X184988833Y-108459680D01*
X184957385Y-108396785D01*
X184957385Y-108270995D01*
X184988833Y-108208100D01*
X185397652Y-107830728D02*
X185366204Y-107893623D01*
X185334757Y-107925071D01*
X185271861Y-107956519D01*
X185083176Y-107956519D01*
X185020280Y-107925071D01*
X184988833Y-107893623D01*
X184957385Y-107830728D01*
X184957385Y-107736385D01*
X184988833Y-107673490D01*
X185020280Y-107642042D01*
X185083176Y-107610595D01*
X185271861Y-107610595D01*
X185334757Y-107642042D01*
X185366204Y-107673490D01*
X185397652Y-107736385D01*
X185397652Y-107830728D01*
X185397652Y-107327566D02*
X184957385Y-107327566D01*
X185020280Y-107327566D02*
X184988833Y-107296119D01*
X184957385Y-107233223D01*
X184957385Y-107138880D01*
X184988833Y-107075985D01*
X185051728Y-107044538D01*
X185397652Y-107044538D01*
X185051728Y-107044538D02*
X184988833Y-107013090D01*
X184957385Y-106950195D01*
X184957385Y-106855852D01*
X184988833Y-106792957D01*
X185051728Y-106761509D01*
X185397652Y-106761509D01*
X182391928Y-119379261D02*
X182391928Y-119159128D01*
X182737852Y-119064785D02*
X182737852Y-119379261D01*
X182077452Y-119379261D01*
X182077452Y-119064785D01*
X182737852Y-118781757D02*
X182077452Y-118781757D01*
X182549166Y-118561623D01*
X182077452Y-118341490D01*
X182737852Y-118341490D01*
X182737852Y-118027014D02*
X182077452Y-118027014D01*
X182549166Y-117806880D01*
X182077452Y-117586747D01*
X182737852Y-117586747D01*
X182674957Y-116391738D02*
X182706404Y-116423185D01*
X182737852Y-116517528D01*
X182737852Y-116580423D01*
X182706404Y-116674766D01*
X182643509Y-116737661D01*
X182580614Y-116769109D01*
X182454823Y-116800557D01*
X182360480Y-116800557D01*
X182234690Y-116769109D01*
X182171795Y-116737661D01*
X182108900Y-116674766D01*
X182077452Y-116580423D01*
X182077452Y-116517528D01*
X182108900Y-116423185D01*
X182140347Y-116391738D01*
X182077452Y-115982919D02*
X182077452Y-115857128D01*
X182108900Y-115794233D01*
X182171795Y-115731338D01*
X182297585Y-115699890D01*
X182517719Y-115699890D01*
X182643509Y-115731338D01*
X182706404Y-115794233D01*
X182737852Y-115857128D01*
X182737852Y-115982919D01*
X182706404Y-116045814D01*
X182643509Y-116108709D01*
X182517719Y-116140157D01*
X182297585Y-116140157D01*
X182171795Y-116108709D01*
X182108900Y-116045814D01*
X182077452Y-115982919D01*
X182737852Y-115416861D02*
X182077452Y-115416861D01*
X182549166Y-115196728D01*
X182077452Y-114976595D01*
X182737852Y-114976595D01*
X182737852Y-114662119D02*
X182077452Y-114662119D01*
X182077452Y-114410538D01*
X182108900Y-114347642D01*
X182140347Y-114316195D01*
X182203242Y-114284747D01*
X182297585Y-114284747D01*
X182360480Y-114316195D01*
X182391928Y-114347642D01*
X182423376Y-114410538D01*
X182423376Y-114662119D01*
X182077452Y-114001719D02*
X182612061Y-114001719D01*
X182674957Y-113970271D01*
X182706404Y-113938823D01*
X182737852Y-113875928D01*
X182737852Y-113750138D01*
X182706404Y-113687242D01*
X182674957Y-113655795D01*
X182612061Y-113624347D01*
X182077452Y-113624347D01*
X182077452Y-113404214D02*
X182077452Y-113026842D01*
X182737852Y-113215528D02*
X182077452Y-113215528D01*
X182391928Y-112806709D02*
X182391928Y-112586576D01*
X182737852Y-112492233D02*
X182737852Y-112806709D01*
X182077452Y-112806709D01*
X182077452Y-112492233D01*
X182737852Y-111831833D02*
X182423376Y-112051966D01*
X182737852Y-112209204D02*
X182077452Y-112209204D01*
X182077452Y-111957623D01*
X182108900Y-111894728D01*
X182140347Y-111863280D01*
X182203242Y-111831833D01*
X182297585Y-111831833D01*
X182360480Y-111863280D01*
X182391928Y-111894728D01*
X182423376Y-111957623D01*
X182423376Y-112209204D01*
X182706404Y-111580252D02*
X182737852Y-111485909D01*
X182737852Y-111328671D01*
X182706404Y-111265776D01*
X182674957Y-111234328D01*
X182612061Y-111202880D01*
X182549166Y-111202880D01*
X182486271Y-111234328D01*
X182454823Y-111265776D01*
X182423376Y-111328671D01*
X182391928Y-111454461D01*
X182360480Y-111517357D01*
X182329033Y-111548804D01*
X182266138Y-111580252D01*
X182203242Y-111580252D01*
X182140347Y-111548804D01*
X182108900Y-111517357D01*
X182077452Y-111454461D01*
X182077452Y-111297223D01*
X182108900Y-111202880D01*
X183847004Y-119410709D02*
X183878452Y-119316366D01*
X183878452Y-119159128D01*
X183847004Y-119096233D01*
X183815557Y-119064785D01*
X183752661Y-119033338D01*
X183689766Y-119033338D01*
X183626871Y-119064785D01*
X183595423Y-119096233D01*
X183563976Y-119159128D01*
X183532528Y-119284919D01*
X183501080Y-119347814D01*
X183469633Y-119379261D01*
X183406738Y-119410709D01*
X183343842Y-119410709D01*
X183280947Y-119379261D01*
X183249500Y-119347814D01*
X183218052Y-119284919D01*
X183218052Y-119127680D01*
X183249500Y-119033338D01*
X183878452Y-118750309D02*
X183218052Y-118750309D01*
X183218052Y-118498728D01*
X183249500Y-118435833D01*
X183280947Y-118404385D01*
X183343842Y-118372938D01*
X183438185Y-118372938D01*
X183501080Y-118404385D01*
X183532528Y-118435833D01*
X183563976Y-118498728D01*
X183563976Y-118750309D01*
X183878452Y-118089909D02*
X183218052Y-118089909D01*
X183626871Y-117272271D02*
X183626871Y-116769109D01*
X183438185Y-116454633D02*
X183626871Y-115951471D01*
X183815557Y-116454633D01*
X183280947Y-115165280D02*
X183249500Y-115133833D01*
X183218052Y-115070938D01*
X183218052Y-114913700D01*
X183249500Y-114850804D01*
X183280947Y-114819357D01*
X183343842Y-114787909D01*
X183406738Y-114787909D01*
X183501080Y-114819357D01*
X183878452Y-115196728D01*
X183878452Y-114787909D01*
X183501080Y-114410538D02*
X183469633Y-114473433D01*
X183438185Y-114504880D01*
X183375290Y-114536328D01*
X183343842Y-114536328D01*
X183280947Y-114504880D01*
X183249500Y-114473433D01*
X183218052Y-114410538D01*
X183218052Y-114284747D01*
X183249500Y-114221852D01*
X183280947Y-114190404D01*
X183343842Y-114158957D01*
X183375290Y-114158957D01*
X183438185Y-114190404D01*
X183469633Y-114221852D01*
X183501080Y-114284747D01*
X183501080Y-114410538D01*
X183532528Y-114473433D01*
X183563976Y-114504880D01*
X183626871Y-114536328D01*
X183752661Y-114536328D01*
X183815557Y-114504880D01*
X183847004Y-114473433D01*
X183878452Y-114410538D01*
X183878452Y-114284747D01*
X183847004Y-114221852D01*
X183815557Y-114190404D01*
X183752661Y-114158957D01*
X183626871Y-114158957D01*
X183563976Y-114190404D01*
X183532528Y-114221852D01*
X183501080Y-114284747D01*
X183815557Y-113498557D02*
X183847004Y-113530004D01*
X183878452Y-113624347D01*
X183878452Y-113687242D01*
X183847004Y-113781585D01*
X183784109Y-113844480D01*
X183721214Y-113875928D01*
X183595423Y-113907376D01*
X183501080Y-113907376D01*
X183375290Y-113875928D01*
X183312395Y-113844480D01*
X183249500Y-113781585D01*
X183218052Y-113687242D01*
X183218052Y-113624347D01*
X183249500Y-113530004D01*
X183280947Y-113498557D01*
X183280947Y-113246976D02*
X183249500Y-113215528D01*
X183218052Y-113152633D01*
X183218052Y-112995395D01*
X183249500Y-112932500D01*
X183280947Y-112901052D01*
X183343842Y-112869604D01*
X183406738Y-112869604D01*
X183501080Y-112901052D01*
X183878452Y-113278423D01*
X183878452Y-112869604D01*
X183218052Y-112272100D02*
X183218052Y-112586576D01*
X183532528Y-112618023D01*
X183501080Y-112586576D01*
X183469633Y-112523680D01*
X183469633Y-112366442D01*
X183501080Y-112303547D01*
X183532528Y-112272100D01*
X183595423Y-112240652D01*
X183752661Y-112240652D01*
X183815557Y-112272100D01*
X183847004Y-112303547D01*
X183878452Y-112366442D01*
X183878452Y-112523680D01*
X183847004Y-112586576D01*
X183815557Y-112618023D01*
X183218052Y-111674595D02*
X183218052Y-111800385D01*
X183249500Y-111863280D01*
X183280947Y-111894728D01*
X183375290Y-111957623D01*
X183501080Y-111989071D01*
X183752661Y-111989071D01*
X183815557Y-111957623D01*
X183847004Y-111926176D01*
X183878452Y-111863280D01*
X183878452Y-111737490D01*
X183847004Y-111674595D01*
X183815557Y-111643147D01*
X183752661Y-111611700D01*
X183595423Y-111611700D01*
X183532528Y-111643147D01*
X183501080Y-111674595D01*
X183469633Y-111737490D01*
X183469633Y-111863280D01*
X183501080Y-111926176D01*
X183532528Y-111957623D01*
X183595423Y-111989071D01*
X183878452Y-110825509D02*
X183218052Y-110825509D01*
X183218052Y-110573928D01*
X183249500Y-110511033D01*
X183280947Y-110479585D01*
X183343842Y-110448138D01*
X183438185Y-110448138D01*
X183501080Y-110479585D01*
X183532528Y-110511033D01*
X183563976Y-110573928D01*
X183563976Y-110825509D01*
X183878452Y-109787738D02*
X183563976Y-110007871D01*
X183878452Y-110165109D02*
X183218052Y-110165109D01*
X183218052Y-109913528D01*
X183249500Y-109850633D01*
X183280947Y-109819185D01*
X183343842Y-109787738D01*
X183438185Y-109787738D01*
X183501080Y-109819185D01*
X183532528Y-109850633D01*
X183563976Y-109913528D01*
X183563976Y-110165109D01*
X183218052Y-109378919D02*
X183218052Y-109253128D01*
X183249500Y-109190233D01*
X183312395Y-109127338D01*
X183438185Y-109095890D01*
X183658319Y-109095890D01*
X183784109Y-109127338D01*
X183847004Y-109190233D01*
X183878452Y-109253128D01*
X183878452Y-109378919D01*
X183847004Y-109441814D01*
X183784109Y-109504709D01*
X183658319Y-109536157D01*
X183438185Y-109536157D01*
X183312395Y-109504709D01*
X183249500Y-109441814D01*
X183218052Y-109378919D01*
X183249500Y-108466938D02*
X183218052Y-108529833D01*
X183218052Y-108624176D01*
X183249500Y-108718519D01*
X183312395Y-108781414D01*
X183375290Y-108812861D01*
X183501080Y-108844309D01*
X183595423Y-108844309D01*
X183721214Y-108812861D01*
X183784109Y-108781414D01*
X183847004Y-108718519D01*
X183878452Y-108624176D01*
X183878452Y-108561280D01*
X183847004Y-108466938D01*
X183815557Y-108435490D01*
X183595423Y-108435490D01*
X183595423Y-108561280D01*
X183878452Y-107775090D02*
X183563976Y-107995223D01*
X183878452Y-108152461D02*
X183218052Y-108152461D01*
X183218052Y-107900880D01*
X183249500Y-107837985D01*
X183280947Y-107806538D01*
X183343842Y-107775090D01*
X183438185Y-107775090D01*
X183501080Y-107806538D01*
X183532528Y-107837985D01*
X183563976Y-107900880D01*
X183563976Y-108152461D01*
X183689766Y-107523509D02*
X183689766Y-107209033D01*
X183878452Y-107586404D02*
X183218052Y-107366271D01*
X183878452Y-107146138D01*
X183878452Y-106926004D02*
X183218052Y-106926004D01*
X183689766Y-106705871D01*
X183218052Y-106485738D01*
X183878452Y-106485738D01*
X183878452Y-106171261D02*
X183218052Y-106171261D01*
X183689766Y-105951128D01*
X183218052Y-105730995D01*
X183878452Y-105730995D01*
X183532528Y-105416519D02*
X183532528Y-105196385D01*
X183878452Y-105102042D02*
X183878452Y-105416519D01*
X183218052Y-105416519D01*
X183218052Y-105102042D01*
X183878452Y-104441642D02*
X183563976Y-104661776D01*
X183878452Y-104819014D02*
X183218052Y-104819014D01*
X183218052Y-104567433D01*
X183249500Y-104504538D01*
X183280947Y-104473090D01*
X183343842Y-104441642D01*
X183438185Y-104441642D01*
X183501080Y-104473090D01*
X183532528Y-104504538D01*
X183563976Y-104567433D01*
X183563976Y-104819014D01*
X184956157Y-119001890D02*
X184987604Y-119033338D01*
X185019052Y-119127680D01*
X185019052Y-119190576D01*
X184987604Y-119284919D01*
X184924709Y-119347814D01*
X184861814Y-119379261D01*
X184736023Y-119410709D01*
X184641680Y-119410709D01*
X184515890Y-119379261D01*
X184452995Y-119347814D01*
X184390100Y-119284919D01*
X184358652Y-119190576D01*
X184358652Y-119127680D01*
X184390100Y-119033338D01*
X184421547Y-119001890D01*
X185019052Y-118624519D02*
X184987604Y-118687414D01*
X184956157Y-118718861D01*
X184893261Y-118750309D01*
X184704576Y-118750309D01*
X184641680Y-118718861D01*
X184610233Y-118687414D01*
X184578785Y-118624519D01*
X184578785Y-118530176D01*
X184610233Y-118467280D01*
X184641680Y-118435833D01*
X184704576Y-118404385D01*
X184893261Y-118404385D01*
X184956157Y-118435833D01*
X184987604Y-118467280D01*
X185019052Y-118530176D01*
X185019052Y-118624519D01*
X184578785Y-118121357D02*
X185239185Y-118121357D01*
X184610233Y-118121357D02*
X184578785Y-118058461D01*
X184578785Y-117932671D01*
X184610233Y-117869776D01*
X184641680Y-117838328D01*
X184704576Y-117806880D01*
X184893261Y-117806880D01*
X184956157Y-117838328D01*
X184987604Y-117869776D01*
X185019052Y-117932671D01*
X185019052Y-118058461D01*
X184987604Y-118121357D01*
X184578785Y-117586747D02*
X185019052Y-117429509D01*
X184578785Y-117272271D02*
X185019052Y-117429509D01*
X185176290Y-117492404D01*
X185207738Y-117523852D01*
X185239185Y-117586747D01*
X185019052Y-117020690D02*
X184578785Y-117020690D01*
X184704576Y-117020690D02*
X184641680Y-116989242D01*
X184610233Y-116957795D01*
X184578785Y-116894900D01*
X184578785Y-116832004D01*
X185019052Y-116611871D02*
X184578785Y-116611871D01*
X184358652Y-116611871D02*
X184390100Y-116643319D01*
X184421547Y-116611871D01*
X184390100Y-116580423D01*
X184358652Y-116611871D01*
X184421547Y-116611871D01*
X184578785Y-116014366D02*
X185113395Y-116014366D01*
X185176290Y-116045814D01*
X185207738Y-116077261D01*
X185239185Y-116140157D01*
X185239185Y-116234500D01*
X185207738Y-116297395D01*
X184987604Y-116014366D02*
X185019052Y-116077261D01*
X185019052Y-116203052D01*
X184987604Y-116265947D01*
X184956157Y-116297395D01*
X184893261Y-116328842D01*
X184704576Y-116328842D01*
X184641680Y-116297395D01*
X184610233Y-116265947D01*
X184578785Y-116203052D01*
X184578785Y-116077261D01*
X184610233Y-116014366D01*
X185019052Y-115699890D02*
X184358652Y-115699890D01*
X185019052Y-115416861D02*
X184673128Y-115416861D01*
X184610233Y-115448309D01*
X184578785Y-115511204D01*
X184578785Y-115605547D01*
X184610233Y-115668442D01*
X184641680Y-115699890D01*
X184578785Y-115196728D02*
X184578785Y-114945147D01*
X184358652Y-115102385D02*
X184924709Y-115102385D01*
X184987604Y-115070938D01*
X185019052Y-115008042D01*
X185019052Y-114945147D01*
X185270633Y-114033166D02*
X185239185Y-114064614D01*
X185144842Y-114127509D01*
X185081947Y-114158957D01*
X184987604Y-114190404D01*
X184830366Y-114221852D01*
X184704576Y-114221852D01*
X184547338Y-114190404D01*
X184452995Y-114158957D01*
X184390100Y-114127509D01*
X184295757Y-114064614D01*
X184264309Y-114033166D01*
X184956157Y-113404214D02*
X184987604Y-113435661D01*
X185019052Y-113530004D01*
X185019052Y-113592900D01*
X184987604Y-113687242D01*
X184924709Y-113750138D01*
X184861814Y-113781585D01*
X184736023Y-113813033D01*
X184641680Y-113813033D01*
X184515890Y-113781585D01*
X184452995Y-113750138D01*
X184390100Y-113687242D01*
X184358652Y-113592900D01*
X184358652Y-113530004D01*
X184390100Y-113435661D01*
X184421547Y-113404214D01*
X185270633Y-113184080D02*
X185239185Y-113152633D01*
X185144842Y-113089738D01*
X185081947Y-113058290D01*
X184987604Y-113026842D01*
X184830366Y-112995395D01*
X184704576Y-112995395D01*
X184547338Y-113026842D01*
X184452995Y-113058290D01*
X184390100Y-113089738D01*
X184295757Y-113152633D01*
X184264309Y-113184080D01*
X184421547Y-112209204D02*
X184390100Y-112177757D01*
X184358652Y-112114861D01*
X184358652Y-111957623D01*
X184390100Y-111894728D01*
X184421547Y-111863280D01*
X184484442Y-111831833D01*
X184547338Y-111831833D01*
X184641680Y-111863280D01*
X185019052Y-112240652D01*
X185019052Y-111831833D01*
X184358652Y-111423014D02*
X184358652Y-111360119D01*
X184390100Y-111297223D01*
X184421547Y-111265776D01*
X184484442Y-111234328D01*
X184610233Y-111202880D01*
X184767471Y-111202880D01*
X184893261Y-111234328D01*
X184956157Y-111265776D01*
X184987604Y-111297223D01*
X185019052Y-111360119D01*
X185019052Y-111423014D01*
X184987604Y-111485909D01*
X184956157Y-111517357D01*
X184893261Y-111548804D01*
X184767471Y-111580252D01*
X184610233Y-111580252D01*
X184484442Y-111548804D01*
X184421547Y-111517357D01*
X184390100Y-111485909D01*
X184358652Y-111423014D01*
X184421547Y-110951300D02*
X184390100Y-110919852D01*
X184358652Y-110856957D01*
X184358652Y-110699719D01*
X184390100Y-110636823D01*
X184421547Y-110605376D01*
X184484442Y-110573928D01*
X184547338Y-110573928D01*
X184641680Y-110605376D01*
X185019052Y-110982747D01*
X185019052Y-110573928D01*
X185019052Y-109944976D02*
X185019052Y-110322347D01*
X185019052Y-110133661D02*
X184358652Y-110133661D01*
X184452995Y-110196557D01*
X184515890Y-110259452D01*
X184547338Y-110322347D01*
X184673128Y-109158785D02*
X184673128Y-108938652D01*
X185019052Y-108844309D02*
X185019052Y-109158785D01*
X184358652Y-109158785D01*
X184358652Y-108844309D01*
X185019052Y-108561280D02*
X184358652Y-108561280D01*
X184830366Y-108341147D01*
X184358652Y-108121014D01*
X185019052Y-108121014D01*
X185019052Y-107806538D02*
X184358652Y-107806538D01*
X184830366Y-107586404D01*
X184358652Y-107366271D01*
X185019052Y-107366271D01*
X185719385Y-119442157D02*
X186159652Y-119316366D01*
X185845176Y-119190576D01*
X186159652Y-119064785D01*
X185719385Y-118938995D01*
X185719385Y-118750309D02*
X186159652Y-118624519D01*
X185845176Y-118498728D01*
X186159652Y-118372938D01*
X185719385Y-118247147D01*
X185719385Y-118058461D02*
X186159652Y-117932671D01*
X185845176Y-117806880D01*
X186159652Y-117681090D01*
X185719385Y-117555300D01*
X186096757Y-117303719D02*
X186128204Y-117272271D01*
X186159652Y-117303719D01*
X186128204Y-117335166D01*
X186096757Y-117303719D01*
X186159652Y-117303719D01*
X186159652Y-116989242D02*
X185499252Y-116989242D01*
X186159652Y-116706214D02*
X185813728Y-116706214D01*
X185750833Y-116737661D01*
X185719385Y-116800557D01*
X185719385Y-116894900D01*
X185750833Y-116957795D01*
X185782280Y-116989242D01*
X186159652Y-116297395D02*
X186128204Y-116360290D01*
X186096757Y-116391738D01*
X186033861Y-116423185D01*
X185845176Y-116423185D01*
X185782280Y-116391738D01*
X185750833Y-116360290D01*
X185719385Y-116297395D01*
X185719385Y-116203052D01*
X185750833Y-116140157D01*
X185782280Y-116108709D01*
X185845176Y-116077261D01*
X186033861Y-116077261D01*
X186096757Y-116108709D01*
X186128204Y-116140157D01*
X186159652Y-116203052D01*
X186159652Y-116297395D01*
X186159652Y-115794233D02*
X185719385Y-115794233D01*
X185782280Y-115794233D02*
X185750833Y-115762785D01*
X185719385Y-115699890D01*
X185719385Y-115605547D01*
X185750833Y-115542652D01*
X185813728Y-115511204D01*
X186159652Y-115511204D01*
X185813728Y-115511204D02*
X185750833Y-115479757D01*
X185719385Y-115416861D01*
X185719385Y-115322519D01*
X185750833Y-115259623D01*
X185813728Y-115228176D01*
X186159652Y-115228176D01*
X186128204Y-114662119D02*
X186159652Y-114725014D01*
X186159652Y-114850804D01*
X186128204Y-114913700D01*
X186065309Y-114945147D01*
X185813728Y-114945147D01*
X185750833Y-114913700D01*
X185719385Y-114850804D01*
X185719385Y-114725014D01*
X185750833Y-114662119D01*
X185813728Y-114630671D01*
X185876623Y-114630671D01*
X185939519Y-114945147D01*
X186159652Y-114347642D02*
X185499252Y-114347642D01*
X185750833Y-114347642D02*
X185719385Y-114284747D01*
X185719385Y-114158957D01*
X185750833Y-114096061D01*
X185782280Y-114064614D01*
X185845176Y-114033166D01*
X186033861Y-114033166D01*
X186096757Y-114064614D01*
X186128204Y-114096061D01*
X186159652Y-114158957D01*
X186159652Y-114284747D01*
X186128204Y-114347642D01*
X186159652Y-113750138D02*
X185719385Y-113750138D01*
X185845176Y-113750138D02*
X185782280Y-113718690D01*
X185750833Y-113687242D01*
X185719385Y-113624347D01*
X185719385Y-113561452D01*
X186128204Y-113089738D02*
X186159652Y-113152633D01*
X186159652Y-113278423D01*
X186128204Y-113341319D01*
X186065309Y-113372766D01*
X185813728Y-113372766D01*
X185750833Y-113341319D01*
X185719385Y-113278423D01*
X185719385Y-113152633D01*
X185750833Y-113089738D01*
X185813728Y-113058290D01*
X185876623Y-113058290D01*
X185939519Y-113372766D01*
X185719385Y-112838157D02*
X186159652Y-112712366D01*
X185845176Y-112586576D01*
X186159652Y-112460785D01*
X185719385Y-112334995D01*
X185782280Y-111989071D02*
X185750833Y-112051966D01*
X185719385Y-112083414D01*
X185656490Y-112114861D01*
X185625042Y-112114861D01*
X185562147Y-112083414D01*
X185530700Y-112051966D01*
X185499252Y-111989071D01*
X185499252Y-111863280D01*
X185530700Y-111800385D01*
X185562147Y-111768938D01*
X185625042Y-111737490D01*
X185656490Y-111737490D01*
X185719385Y-111768938D01*
X185750833Y-111800385D01*
X185782280Y-111863280D01*
X185782280Y-111989071D01*
X185813728Y-112051966D01*
X185845176Y-112083414D01*
X185908071Y-112114861D01*
X186033861Y-112114861D01*
X186096757Y-112083414D01*
X186128204Y-112051966D01*
X186159652Y-111989071D01*
X186159652Y-111863280D01*
X186128204Y-111800385D01*
X186096757Y-111768938D01*
X186033861Y-111737490D01*
X185908071Y-111737490D01*
X185845176Y-111768938D01*
X185813728Y-111800385D01*
X185782280Y-111863280D01*
X185499252Y-111328671D02*
X185499252Y-111265776D01*
X185530700Y-111202880D01*
X185562147Y-111171433D01*
X185625042Y-111139985D01*
X185750833Y-111108538D01*
X185908071Y-111108538D01*
X186033861Y-111139985D01*
X186096757Y-111171433D01*
X186128204Y-111202880D01*
X186159652Y-111265776D01*
X186159652Y-111328671D01*
X186128204Y-111391566D01*
X186096757Y-111423014D01*
X186033861Y-111454461D01*
X185908071Y-111485909D01*
X185750833Y-111485909D01*
X185625042Y-111454461D01*
X185562147Y-111423014D01*
X185530700Y-111391566D01*
X185499252Y-111328671D01*
X185782280Y-110731166D02*
X185750833Y-110794061D01*
X185719385Y-110825509D01*
X185656490Y-110856957D01*
X185625042Y-110856957D01*
X185562147Y-110825509D01*
X185530700Y-110794061D01*
X185499252Y-110731166D01*
X185499252Y-110605376D01*
X185530700Y-110542480D01*
X185562147Y-110511033D01*
X185625042Y-110479585D01*
X185656490Y-110479585D01*
X185719385Y-110511033D01*
X185750833Y-110542480D01*
X185782280Y-110605376D01*
X185782280Y-110731166D01*
X185813728Y-110794061D01*
X185845176Y-110825509D01*
X185908071Y-110856957D01*
X186033861Y-110856957D01*
X186096757Y-110825509D01*
X186128204Y-110794061D01*
X186159652Y-110731166D01*
X186159652Y-110605376D01*
X186128204Y-110542480D01*
X186096757Y-110511033D01*
X186033861Y-110479585D01*
X185908071Y-110479585D01*
X185845176Y-110511033D01*
X185813728Y-110542480D01*
X185782280Y-110605376D01*
X185782280Y-110102214D02*
X185750833Y-110165109D01*
X185719385Y-110196557D01*
X185656490Y-110228004D01*
X185625042Y-110228004D01*
X185562147Y-110196557D01*
X185530700Y-110165109D01*
X185499252Y-110102214D01*
X185499252Y-109976423D01*
X185530700Y-109913528D01*
X185562147Y-109882080D01*
X185625042Y-109850633D01*
X185656490Y-109850633D01*
X185719385Y-109882080D01*
X185750833Y-109913528D01*
X185782280Y-109976423D01*
X185782280Y-110102214D01*
X185813728Y-110165109D01*
X185845176Y-110196557D01*
X185908071Y-110228004D01*
X186033861Y-110228004D01*
X186096757Y-110196557D01*
X186128204Y-110165109D01*
X186159652Y-110102214D01*
X186159652Y-109976423D01*
X186128204Y-109913528D01*
X186096757Y-109882080D01*
X186033861Y-109850633D01*
X185908071Y-109850633D01*
X185845176Y-109882080D01*
X185813728Y-109913528D01*
X185782280Y-109976423D01*
X186096757Y-109567604D02*
X186128204Y-109536157D01*
X186159652Y-109567604D01*
X186128204Y-109599052D01*
X186096757Y-109567604D01*
X186159652Y-109567604D01*
X186128204Y-108970100D02*
X186159652Y-109032995D01*
X186159652Y-109158785D01*
X186128204Y-109221680D01*
X186096757Y-109253128D01*
X186033861Y-109284576D01*
X185845176Y-109284576D01*
X185782280Y-109253128D01*
X185750833Y-109221680D01*
X185719385Y-109158785D01*
X185719385Y-109032995D01*
X185750833Y-108970100D01*
X186159652Y-108592728D02*
X186128204Y-108655623D01*
X186096757Y-108687071D01*
X186033861Y-108718519D01*
X185845176Y-108718519D01*
X185782280Y-108687071D01*
X185750833Y-108655623D01*
X185719385Y-108592728D01*
X185719385Y-108498385D01*
X185750833Y-108435490D01*
X185782280Y-108404042D01*
X185845176Y-108372595D01*
X186033861Y-108372595D01*
X186096757Y-108404042D01*
X186128204Y-108435490D01*
X186159652Y-108498385D01*
X186159652Y-108592728D01*
X186159652Y-108089566D02*
X185719385Y-108089566D01*
X185782280Y-108089566D02*
X185750833Y-108058119D01*
X185719385Y-107995223D01*
X185719385Y-107900880D01*
X185750833Y-107837985D01*
X185813728Y-107806538D01*
X186159652Y-107806538D01*
X185813728Y-107806538D02*
X185750833Y-107775090D01*
X185719385Y-107712195D01*
X185719385Y-107617852D01*
X185750833Y-107554957D01*
X185813728Y-107523509D01*
X186159652Y-107523509D01*
X178115214Y-117240352D02*
X177800738Y-117240352D01*
X177769290Y-117554828D01*
X177800738Y-117523380D01*
X177863633Y-117491933D01*
X178020871Y-117491933D01*
X178083766Y-117523380D01*
X178115214Y-117554828D01*
X178146661Y-117617723D01*
X178146661Y-117774961D01*
X178115214Y-117837857D01*
X178083766Y-117869304D01*
X178020871Y-117900752D01*
X177863633Y-117900752D01*
X177800738Y-117869304D01*
X177769290Y-117837857D01*
X178429690Y-117649171D02*
X178932852Y-117649171D01*
X178681271Y-117900752D02*
X178681271Y-117397590D01*
X174517928Y-112775261D02*
X174517928Y-112555128D01*
X174863852Y-112460785D02*
X174863852Y-112775261D01*
X174203452Y-112775261D01*
X174203452Y-112460785D01*
X174863852Y-112177757D02*
X174203452Y-112177757D01*
X174675166Y-111957623D01*
X174203452Y-111737490D01*
X174863852Y-111737490D01*
X174863852Y-111423014D02*
X174203452Y-111423014D01*
X174675166Y-111202880D01*
X174203452Y-110982747D01*
X174863852Y-110982747D01*
X174800957Y-109787738D02*
X174832404Y-109819185D01*
X174863852Y-109913528D01*
X174863852Y-109976423D01*
X174832404Y-110070766D01*
X174769509Y-110133661D01*
X174706614Y-110165109D01*
X174580823Y-110196557D01*
X174486480Y-110196557D01*
X174360690Y-110165109D01*
X174297795Y-110133661D01*
X174234900Y-110070766D01*
X174203452Y-109976423D01*
X174203452Y-109913528D01*
X174234900Y-109819185D01*
X174266347Y-109787738D01*
X174203452Y-109378919D02*
X174203452Y-109253128D01*
X174234900Y-109190233D01*
X174297795Y-109127338D01*
X174423585Y-109095890D01*
X174643719Y-109095890D01*
X174769509Y-109127338D01*
X174832404Y-109190233D01*
X174863852Y-109253128D01*
X174863852Y-109378919D01*
X174832404Y-109441814D01*
X174769509Y-109504709D01*
X174643719Y-109536157D01*
X174423585Y-109536157D01*
X174297795Y-109504709D01*
X174234900Y-109441814D01*
X174203452Y-109378919D01*
X174863852Y-108812861D02*
X174203452Y-108812861D01*
X174675166Y-108592728D01*
X174203452Y-108372595D01*
X174863852Y-108372595D01*
X174863852Y-108058119D02*
X174203452Y-108058119D01*
X174203452Y-107806538D01*
X174234900Y-107743642D01*
X174266347Y-107712195D01*
X174329242Y-107680747D01*
X174423585Y-107680747D01*
X174486480Y-107712195D01*
X174517928Y-107743642D01*
X174549376Y-107806538D01*
X174549376Y-108058119D01*
X174203452Y-107397719D02*
X174738061Y-107397719D01*
X174800957Y-107366271D01*
X174832404Y-107334823D01*
X174863852Y-107271928D01*
X174863852Y-107146138D01*
X174832404Y-107083242D01*
X174800957Y-107051795D01*
X174738061Y-107020347D01*
X174203452Y-107020347D01*
X174203452Y-106800214D02*
X174203452Y-106422842D01*
X174863852Y-106611528D02*
X174203452Y-106611528D01*
X174517928Y-106202709D02*
X174517928Y-105982576D01*
X174863852Y-105888233D02*
X174863852Y-106202709D01*
X174203452Y-106202709D01*
X174203452Y-105888233D01*
X174863852Y-105227833D02*
X174549376Y-105447966D01*
X174863852Y-105605204D02*
X174203452Y-105605204D01*
X174203452Y-105353623D01*
X174234900Y-105290728D01*
X174266347Y-105259280D01*
X174329242Y-105227833D01*
X174423585Y-105227833D01*
X174486480Y-105259280D01*
X174517928Y-105290728D01*
X174549376Y-105353623D01*
X174549376Y-105605204D01*
X174832404Y-104976252D02*
X174863852Y-104881909D01*
X174863852Y-104724671D01*
X174832404Y-104661776D01*
X174800957Y-104630328D01*
X174738061Y-104598880D01*
X174675166Y-104598880D01*
X174612271Y-104630328D01*
X174580823Y-104661776D01*
X174549376Y-104724671D01*
X174517928Y-104850461D01*
X174486480Y-104913357D01*
X174455033Y-104944804D01*
X174392138Y-104976252D01*
X174329242Y-104976252D01*
X174266347Y-104944804D01*
X174234900Y-104913357D01*
X174203452Y-104850461D01*
X174203452Y-104693223D01*
X174234900Y-104598880D01*
X175973004Y-112806709D02*
X176004452Y-112712366D01*
X176004452Y-112555128D01*
X175973004Y-112492233D01*
X175941557Y-112460785D01*
X175878661Y-112429338D01*
X175815766Y-112429338D01*
X175752871Y-112460785D01*
X175721423Y-112492233D01*
X175689976Y-112555128D01*
X175658528Y-112680919D01*
X175627080Y-112743814D01*
X175595633Y-112775261D01*
X175532738Y-112806709D01*
X175469842Y-112806709D01*
X175406947Y-112775261D01*
X175375500Y-112743814D01*
X175344052Y-112680919D01*
X175344052Y-112523680D01*
X175375500Y-112429338D01*
X176004452Y-112146309D02*
X175344052Y-112146309D01*
X175344052Y-111894728D01*
X175375500Y-111831833D01*
X175406947Y-111800385D01*
X175469842Y-111768938D01*
X175564185Y-111768938D01*
X175627080Y-111800385D01*
X175658528Y-111831833D01*
X175689976Y-111894728D01*
X175689976Y-112146309D01*
X176004452Y-111485909D02*
X175344052Y-111485909D01*
X175752871Y-110668271D02*
X175752871Y-110165109D01*
X175564185Y-109850633D02*
X175752871Y-109347471D01*
X175941557Y-109850633D01*
X175406947Y-108561280D02*
X175375500Y-108529833D01*
X175344052Y-108466938D01*
X175344052Y-108309700D01*
X175375500Y-108246804D01*
X175406947Y-108215357D01*
X175469842Y-108183909D01*
X175532738Y-108183909D01*
X175627080Y-108215357D01*
X176004452Y-108592728D01*
X176004452Y-108183909D01*
X175627080Y-107806538D02*
X175595633Y-107869433D01*
X175564185Y-107900880D01*
X175501290Y-107932328D01*
X175469842Y-107932328D01*
X175406947Y-107900880D01*
X175375500Y-107869433D01*
X175344052Y-107806538D01*
X175344052Y-107680747D01*
X175375500Y-107617852D01*
X175406947Y-107586404D01*
X175469842Y-107554957D01*
X175501290Y-107554957D01*
X175564185Y-107586404D01*
X175595633Y-107617852D01*
X175627080Y-107680747D01*
X175627080Y-107806538D01*
X175658528Y-107869433D01*
X175689976Y-107900880D01*
X175752871Y-107932328D01*
X175878661Y-107932328D01*
X175941557Y-107900880D01*
X175973004Y-107869433D01*
X176004452Y-107806538D01*
X176004452Y-107680747D01*
X175973004Y-107617852D01*
X175941557Y-107586404D01*
X175878661Y-107554957D01*
X175752871Y-107554957D01*
X175689976Y-107586404D01*
X175658528Y-107617852D01*
X175627080Y-107680747D01*
X175941557Y-106894557D02*
X175973004Y-106926004D01*
X176004452Y-107020347D01*
X176004452Y-107083242D01*
X175973004Y-107177585D01*
X175910109Y-107240480D01*
X175847214Y-107271928D01*
X175721423Y-107303376D01*
X175627080Y-107303376D01*
X175501290Y-107271928D01*
X175438395Y-107240480D01*
X175375500Y-107177585D01*
X175344052Y-107083242D01*
X175344052Y-107020347D01*
X175375500Y-106926004D01*
X175406947Y-106894557D01*
X175406947Y-106642976D02*
X175375500Y-106611528D01*
X175344052Y-106548633D01*
X175344052Y-106391395D01*
X175375500Y-106328500D01*
X175406947Y-106297052D01*
X175469842Y-106265604D01*
X175532738Y-106265604D01*
X175627080Y-106297052D01*
X176004452Y-106674423D01*
X176004452Y-106265604D01*
X175344052Y-105668100D02*
X175344052Y-105982576D01*
X175658528Y-106014023D01*
X175627080Y-105982576D01*
X175595633Y-105919680D01*
X175595633Y-105762442D01*
X175627080Y-105699547D01*
X175658528Y-105668100D01*
X175721423Y-105636652D01*
X175878661Y-105636652D01*
X175941557Y-105668100D01*
X175973004Y-105699547D01*
X176004452Y-105762442D01*
X176004452Y-105919680D01*
X175973004Y-105982576D01*
X175941557Y-106014023D01*
X175344052Y-105070595D02*
X175344052Y-105196385D01*
X175375500Y-105259280D01*
X175406947Y-105290728D01*
X175501290Y-105353623D01*
X175627080Y-105385071D01*
X175878661Y-105385071D01*
X175941557Y-105353623D01*
X175973004Y-105322176D01*
X176004452Y-105259280D01*
X176004452Y-105133490D01*
X175973004Y-105070595D01*
X175941557Y-105039147D01*
X175878661Y-105007700D01*
X175721423Y-105007700D01*
X175658528Y-105039147D01*
X175627080Y-105070595D01*
X175595633Y-105133490D01*
X175595633Y-105259280D01*
X175627080Y-105322176D01*
X175658528Y-105353623D01*
X175721423Y-105385071D01*
X176004452Y-104221509D02*
X175344052Y-104221509D01*
X175344052Y-103969928D01*
X175375500Y-103907033D01*
X175406947Y-103875585D01*
X175469842Y-103844138D01*
X175564185Y-103844138D01*
X175627080Y-103875585D01*
X175658528Y-103907033D01*
X175689976Y-103969928D01*
X175689976Y-104221509D01*
X176004452Y-103183738D02*
X175689976Y-103403871D01*
X176004452Y-103561109D02*
X175344052Y-103561109D01*
X175344052Y-103309528D01*
X175375500Y-103246633D01*
X175406947Y-103215185D01*
X175469842Y-103183738D01*
X175564185Y-103183738D01*
X175627080Y-103215185D01*
X175658528Y-103246633D01*
X175689976Y-103309528D01*
X175689976Y-103561109D01*
X175344052Y-102774919D02*
X175344052Y-102649128D01*
X175375500Y-102586233D01*
X175438395Y-102523338D01*
X175564185Y-102491890D01*
X175784319Y-102491890D01*
X175910109Y-102523338D01*
X175973004Y-102586233D01*
X176004452Y-102649128D01*
X176004452Y-102774919D01*
X175973004Y-102837814D01*
X175910109Y-102900709D01*
X175784319Y-102932157D01*
X175564185Y-102932157D01*
X175438395Y-102900709D01*
X175375500Y-102837814D01*
X175344052Y-102774919D01*
X175375500Y-101862938D02*
X175344052Y-101925833D01*
X175344052Y-102020176D01*
X175375500Y-102114519D01*
X175438395Y-102177414D01*
X175501290Y-102208861D01*
X175627080Y-102240309D01*
X175721423Y-102240309D01*
X175847214Y-102208861D01*
X175910109Y-102177414D01*
X175973004Y-102114519D01*
X176004452Y-102020176D01*
X176004452Y-101957280D01*
X175973004Y-101862938D01*
X175941557Y-101831490D01*
X175721423Y-101831490D01*
X175721423Y-101957280D01*
X176004452Y-101171090D02*
X175689976Y-101391223D01*
X176004452Y-101548461D02*
X175344052Y-101548461D01*
X175344052Y-101296880D01*
X175375500Y-101233985D01*
X175406947Y-101202538D01*
X175469842Y-101171090D01*
X175564185Y-101171090D01*
X175627080Y-101202538D01*
X175658528Y-101233985D01*
X175689976Y-101296880D01*
X175689976Y-101548461D01*
X175815766Y-100919509D02*
X175815766Y-100605033D01*
X176004452Y-100982404D02*
X175344052Y-100762271D01*
X176004452Y-100542138D01*
X176004452Y-100322004D02*
X175344052Y-100322004D01*
X175815766Y-100101871D01*
X175344052Y-99881738D01*
X176004452Y-99881738D01*
X176004452Y-99567261D02*
X175344052Y-99567261D01*
X175815766Y-99347128D01*
X175344052Y-99126995D01*
X176004452Y-99126995D01*
X175658528Y-98812519D02*
X175658528Y-98592385D01*
X176004452Y-98498042D02*
X176004452Y-98812519D01*
X175344052Y-98812519D01*
X175344052Y-98498042D01*
X176004452Y-97837642D02*
X175689976Y-98057776D01*
X176004452Y-98215014D02*
X175344052Y-98215014D01*
X175344052Y-97963433D01*
X175375500Y-97900538D01*
X175406947Y-97869090D01*
X175469842Y-97837642D01*
X175564185Y-97837642D01*
X175627080Y-97869090D01*
X175658528Y-97900538D01*
X175689976Y-97963433D01*
X175689976Y-98215014D01*
X177082157Y-112397890D02*
X177113604Y-112429338D01*
X177145052Y-112523680D01*
X177145052Y-112586576D01*
X177113604Y-112680919D01*
X177050709Y-112743814D01*
X176987814Y-112775261D01*
X176862023Y-112806709D01*
X176767680Y-112806709D01*
X176641890Y-112775261D01*
X176578995Y-112743814D01*
X176516100Y-112680919D01*
X176484652Y-112586576D01*
X176484652Y-112523680D01*
X176516100Y-112429338D01*
X176547547Y-112397890D01*
X177145052Y-112020519D02*
X177113604Y-112083414D01*
X177082157Y-112114861D01*
X177019261Y-112146309D01*
X176830576Y-112146309D01*
X176767680Y-112114861D01*
X176736233Y-112083414D01*
X176704785Y-112020519D01*
X176704785Y-111926176D01*
X176736233Y-111863280D01*
X176767680Y-111831833D01*
X176830576Y-111800385D01*
X177019261Y-111800385D01*
X177082157Y-111831833D01*
X177113604Y-111863280D01*
X177145052Y-111926176D01*
X177145052Y-112020519D01*
X176704785Y-111517357D02*
X177365185Y-111517357D01*
X176736233Y-111517357D02*
X176704785Y-111454461D01*
X176704785Y-111328671D01*
X176736233Y-111265776D01*
X176767680Y-111234328D01*
X176830576Y-111202880D01*
X177019261Y-111202880D01*
X177082157Y-111234328D01*
X177113604Y-111265776D01*
X177145052Y-111328671D01*
X177145052Y-111454461D01*
X177113604Y-111517357D01*
X176704785Y-110982747D02*
X177145052Y-110825509D01*
X176704785Y-110668271D02*
X177145052Y-110825509D01*
X177302290Y-110888404D01*
X177333738Y-110919852D01*
X177365185Y-110982747D01*
X177145052Y-110416690D02*
X176704785Y-110416690D01*
X176830576Y-110416690D02*
X176767680Y-110385242D01*
X176736233Y-110353795D01*
X176704785Y-110290900D01*
X176704785Y-110228004D01*
X177145052Y-110007871D02*
X176704785Y-110007871D01*
X176484652Y-110007871D02*
X176516100Y-110039319D01*
X176547547Y-110007871D01*
X176516100Y-109976423D01*
X176484652Y-110007871D01*
X176547547Y-110007871D01*
X176704785Y-109410366D02*
X177239395Y-109410366D01*
X177302290Y-109441814D01*
X177333738Y-109473261D01*
X177365185Y-109536157D01*
X177365185Y-109630500D01*
X177333738Y-109693395D01*
X177113604Y-109410366D02*
X177145052Y-109473261D01*
X177145052Y-109599052D01*
X177113604Y-109661947D01*
X177082157Y-109693395D01*
X177019261Y-109724842D01*
X176830576Y-109724842D01*
X176767680Y-109693395D01*
X176736233Y-109661947D01*
X176704785Y-109599052D01*
X176704785Y-109473261D01*
X176736233Y-109410366D01*
X177145052Y-109095890D02*
X176484652Y-109095890D01*
X177145052Y-108812861D02*
X176799128Y-108812861D01*
X176736233Y-108844309D01*
X176704785Y-108907204D01*
X176704785Y-109001547D01*
X176736233Y-109064442D01*
X176767680Y-109095890D01*
X176704785Y-108592728D02*
X176704785Y-108341147D01*
X176484652Y-108498385D02*
X177050709Y-108498385D01*
X177113604Y-108466938D01*
X177145052Y-108404042D01*
X177145052Y-108341147D01*
X177396633Y-107429166D02*
X177365185Y-107460614D01*
X177270842Y-107523509D01*
X177207947Y-107554957D01*
X177113604Y-107586404D01*
X176956366Y-107617852D01*
X176830576Y-107617852D01*
X176673338Y-107586404D01*
X176578995Y-107554957D01*
X176516100Y-107523509D01*
X176421757Y-107460614D01*
X176390309Y-107429166D01*
X177082157Y-106800214D02*
X177113604Y-106831661D01*
X177145052Y-106926004D01*
X177145052Y-106988900D01*
X177113604Y-107083242D01*
X177050709Y-107146138D01*
X176987814Y-107177585D01*
X176862023Y-107209033D01*
X176767680Y-107209033D01*
X176641890Y-107177585D01*
X176578995Y-107146138D01*
X176516100Y-107083242D01*
X176484652Y-106988900D01*
X176484652Y-106926004D01*
X176516100Y-106831661D01*
X176547547Y-106800214D01*
X177396633Y-106580080D02*
X177365185Y-106548633D01*
X177270842Y-106485738D01*
X177207947Y-106454290D01*
X177113604Y-106422842D01*
X176956366Y-106391395D01*
X176830576Y-106391395D01*
X176673338Y-106422842D01*
X176578995Y-106454290D01*
X176516100Y-106485738D01*
X176421757Y-106548633D01*
X176390309Y-106580080D01*
X176547547Y-105605204D02*
X176516100Y-105573757D01*
X176484652Y-105510861D01*
X176484652Y-105353623D01*
X176516100Y-105290728D01*
X176547547Y-105259280D01*
X176610442Y-105227833D01*
X176673338Y-105227833D01*
X176767680Y-105259280D01*
X177145052Y-105636652D01*
X177145052Y-105227833D01*
X176484652Y-104819014D02*
X176484652Y-104756119D01*
X176516100Y-104693223D01*
X176547547Y-104661776D01*
X176610442Y-104630328D01*
X176736233Y-104598880D01*
X176893471Y-104598880D01*
X177019261Y-104630328D01*
X177082157Y-104661776D01*
X177113604Y-104693223D01*
X177145052Y-104756119D01*
X177145052Y-104819014D01*
X177113604Y-104881909D01*
X177082157Y-104913357D01*
X177019261Y-104944804D01*
X176893471Y-104976252D01*
X176736233Y-104976252D01*
X176610442Y-104944804D01*
X176547547Y-104913357D01*
X176516100Y-104881909D01*
X176484652Y-104819014D01*
X176547547Y-104347300D02*
X176516100Y-104315852D01*
X176484652Y-104252957D01*
X176484652Y-104095719D01*
X176516100Y-104032823D01*
X176547547Y-104001376D01*
X176610442Y-103969928D01*
X176673338Y-103969928D01*
X176767680Y-104001376D01*
X177145052Y-104378747D01*
X177145052Y-103969928D01*
X177145052Y-103340976D02*
X177145052Y-103718347D01*
X177145052Y-103529661D02*
X176484652Y-103529661D01*
X176578995Y-103592557D01*
X176641890Y-103655452D01*
X176673338Y-103718347D01*
X176799128Y-102554785D02*
X176799128Y-102334652D01*
X177145052Y-102240309D02*
X177145052Y-102554785D01*
X176484652Y-102554785D01*
X176484652Y-102240309D01*
X177145052Y-101957280D02*
X176484652Y-101957280D01*
X176956366Y-101737147D01*
X176484652Y-101517014D01*
X177145052Y-101517014D01*
X177145052Y-101202538D02*
X176484652Y-101202538D01*
X176956366Y-100982404D01*
X176484652Y-100762271D01*
X177145052Y-100762271D01*
X177845385Y-112838157D02*
X178285652Y-112712366D01*
X177971176Y-112586576D01*
X178285652Y-112460785D01*
X177845385Y-112334995D01*
X177845385Y-112146309D02*
X178285652Y-112020519D01*
X177971176Y-111894728D01*
X178285652Y-111768938D01*
X177845385Y-111643147D01*
X177845385Y-111454461D02*
X178285652Y-111328671D01*
X177971176Y-111202880D01*
X178285652Y-111077090D01*
X177845385Y-110951300D01*
X178222757Y-110699719D02*
X178254204Y-110668271D01*
X178285652Y-110699719D01*
X178254204Y-110731166D01*
X178222757Y-110699719D01*
X178285652Y-110699719D01*
X178285652Y-110385242D02*
X177625252Y-110385242D01*
X178285652Y-110102214D02*
X177939728Y-110102214D01*
X177876833Y-110133661D01*
X177845385Y-110196557D01*
X177845385Y-110290900D01*
X177876833Y-110353795D01*
X177908280Y-110385242D01*
X178285652Y-109693395D02*
X178254204Y-109756290D01*
X178222757Y-109787738D01*
X178159861Y-109819185D01*
X177971176Y-109819185D01*
X177908280Y-109787738D01*
X177876833Y-109756290D01*
X177845385Y-109693395D01*
X177845385Y-109599052D01*
X177876833Y-109536157D01*
X177908280Y-109504709D01*
X177971176Y-109473261D01*
X178159861Y-109473261D01*
X178222757Y-109504709D01*
X178254204Y-109536157D01*
X178285652Y-109599052D01*
X178285652Y-109693395D01*
X178285652Y-109190233D02*
X177845385Y-109190233D01*
X177908280Y-109190233D02*
X177876833Y-109158785D01*
X177845385Y-109095890D01*
X177845385Y-109001547D01*
X177876833Y-108938652D01*
X177939728Y-108907204D01*
X178285652Y-108907204D01*
X177939728Y-108907204D02*
X177876833Y-108875757D01*
X177845385Y-108812861D01*
X177845385Y-108718519D01*
X177876833Y-108655623D01*
X177939728Y-108624176D01*
X178285652Y-108624176D01*
X178254204Y-108058119D02*
X178285652Y-108121014D01*
X178285652Y-108246804D01*
X178254204Y-108309700D01*
X178191309Y-108341147D01*
X177939728Y-108341147D01*
X177876833Y-108309700D01*
X177845385Y-108246804D01*
X177845385Y-108121014D01*
X177876833Y-108058119D01*
X177939728Y-108026671D01*
X178002623Y-108026671D01*
X178065519Y-108341147D01*
X178285652Y-107743642D02*
X177625252Y-107743642D01*
X177876833Y-107743642D02*
X177845385Y-107680747D01*
X177845385Y-107554957D01*
X177876833Y-107492061D01*
X177908280Y-107460614D01*
X177971176Y-107429166D01*
X178159861Y-107429166D01*
X178222757Y-107460614D01*
X178254204Y-107492061D01*
X178285652Y-107554957D01*
X178285652Y-107680747D01*
X178254204Y-107743642D01*
X178285652Y-107146138D02*
X177845385Y-107146138D01*
X177971176Y-107146138D02*
X177908280Y-107114690D01*
X177876833Y-107083242D01*
X177845385Y-107020347D01*
X177845385Y-106957452D01*
X178254204Y-106485738D02*
X178285652Y-106548633D01*
X178285652Y-106674423D01*
X178254204Y-106737319D01*
X178191309Y-106768766D01*
X177939728Y-106768766D01*
X177876833Y-106737319D01*
X177845385Y-106674423D01*
X177845385Y-106548633D01*
X177876833Y-106485738D01*
X177939728Y-106454290D01*
X178002623Y-106454290D01*
X178065519Y-106768766D01*
X177845385Y-106234157D02*
X178285652Y-106108366D01*
X177971176Y-105982576D01*
X178285652Y-105856785D01*
X177845385Y-105730995D01*
X177908280Y-105385071D02*
X177876833Y-105447966D01*
X177845385Y-105479414D01*
X177782490Y-105510861D01*
X177751042Y-105510861D01*
X177688147Y-105479414D01*
X177656700Y-105447966D01*
X177625252Y-105385071D01*
X177625252Y-105259280D01*
X177656700Y-105196385D01*
X177688147Y-105164938D01*
X177751042Y-105133490D01*
X177782490Y-105133490D01*
X177845385Y-105164938D01*
X177876833Y-105196385D01*
X177908280Y-105259280D01*
X177908280Y-105385071D01*
X177939728Y-105447966D01*
X177971176Y-105479414D01*
X178034071Y-105510861D01*
X178159861Y-105510861D01*
X178222757Y-105479414D01*
X178254204Y-105447966D01*
X178285652Y-105385071D01*
X178285652Y-105259280D01*
X178254204Y-105196385D01*
X178222757Y-105164938D01*
X178159861Y-105133490D01*
X178034071Y-105133490D01*
X177971176Y-105164938D01*
X177939728Y-105196385D01*
X177908280Y-105259280D01*
X177625252Y-104724671D02*
X177625252Y-104661776D01*
X177656700Y-104598880D01*
X177688147Y-104567433D01*
X177751042Y-104535985D01*
X177876833Y-104504538D01*
X178034071Y-104504538D01*
X178159861Y-104535985D01*
X178222757Y-104567433D01*
X178254204Y-104598880D01*
X178285652Y-104661776D01*
X178285652Y-104724671D01*
X178254204Y-104787566D01*
X178222757Y-104819014D01*
X178159861Y-104850461D01*
X178034071Y-104881909D01*
X177876833Y-104881909D01*
X177751042Y-104850461D01*
X177688147Y-104819014D01*
X177656700Y-104787566D01*
X177625252Y-104724671D01*
X177908280Y-104127166D02*
X177876833Y-104190061D01*
X177845385Y-104221509D01*
X177782490Y-104252957D01*
X177751042Y-104252957D01*
X177688147Y-104221509D01*
X177656700Y-104190061D01*
X177625252Y-104127166D01*
X177625252Y-104001376D01*
X177656700Y-103938480D01*
X177688147Y-103907033D01*
X177751042Y-103875585D01*
X177782490Y-103875585D01*
X177845385Y-103907033D01*
X177876833Y-103938480D01*
X177908280Y-104001376D01*
X177908280Y-104127166D01*
X177939728Y-104190061D01*
X177971176Y-104221509D01*
X178034071Y-104252957D01*
X178159861Y-104252957D01*
X178222757Y-104221509D01*
X178254204Y-104190061D01*
X178285652Y-104127166D01*
X178285652Y-104001376D01*
X178254204Y-103938480D01*
X178222757Y-103907033D01*
X178159861Y-103875585D01*
X178034071Y-103875585D01*
X177971176Y-103907033D01*
X177939728Y-103938480D01*
X177908280Y-104001376D01*
X177908280Y-103498214D02*
X177876833Y-103561109D01*
X177845385Y-103592557D01*
X177782490Y-103624004D01*
X177751042Y-103624004D01*
X177688147Y-103592557D01*
X177656700Y-103561109D01*
X177625252Y-103498214D01*
X177625252Y-103372423D01*
X177656700Y-103309528D01*
X177688147Y-103278080D01*
X177751042Y-103246633D01*
X177782490Y-103246633D01*
X177845385Y-103278080D01*
X177876833Y-103309528D01*
X177908280Y-103372423D01*
X177908280Y-103498214D01*
X177939728Y-103561109D01*
X177971176Y-103592557D01*
X178034071Y-103624004D01*
X178159861Y-103624004D01*
X178222757Y-103592557D01*
X178254204Y-103561109D01*
X178285652Y-103498214D01*
X178285652Y-103372423D01*
X178254204Y-103309528D01*
X178222757Y-103278080D01*
X178159861Y-103246633D01*
X178034071Y-103246633D01*
X177971176Y-103278080D01*
X177939728Y-103309528D01*
X177908280Y-103372423D01*
X178222757Y-102963604D02*
X178254204Y-102932157D01*
X178285652Y-102963604D01*
X178254204Y-102995052D01*
X178222757Y-102963604D01*
X178285652Y-102963604D01*
X178254204Y-102366100D02*
X178285652Y-102428995D01*
X178285652Y-102554785D01*
X178254204Y-102617680D01*
X178222757Y-102649128D01*
X178159861Y-102680576D01*
X177971176Y-102680576D01*
X177908280Y-102649128D01*
X177876833Y-102617680D01*
X177845385Y-102554785D01*
X177845385Y-102428995D01*
X177876833Y-102366100D01*
X178285652Y-101988728D02*
X178254204Y-102051623D01*
X178222757Y-102083071D01*
X178159861Y-102114519D01*
X177971176Y-102114519D01*
X177908280Y-102083071D01*
X177876833Y-102051623D01*
X177845385Y-101988728D01*
X177845385Y-101894385D01*
X177876833Y-101831490D01*
X177908280Y-101800042D01*
X177971176Y-101768595D01*
X178159861Y-101768595D01*
X178222757Y-101800042D01*
X178254204Y-101831490D01*
X178285652Y-101894385D01*
X178285652Y-101988728D01*
X178285652Y-101485566D02*
X177845385Y-101485566D01*
X177908280Y-101485566D02*
X177876833Y-101454119D01*
X177845385Y-101391223D01*
X177845385Y-101296880D01*
X177876833Y-101233985D01*
X177939728Y-101202538D01*
X178285652Y-101202538D01*
X177939728Y-101202538D02*
X177876833Y-101171090D01*
X177845385Y-101108195D01*
X177845385Y-101013852D01*
X177876833Y-100950957D01*
X177939728Y-100919509D01*
X178285652Y-100919509D01*
D11*
G04 #@! TO.C,J1*
X174438000Y-131632000D02*
X177098000Y-131632000D01*
X174438000Y-118872000D02*
X174438000Y-131632000D01*
X177098000Y-118872000D02*
X177098000Y-131632000D01*
X174438000Y-118872000D02*
X177098000Y-118872000D01*
X174438000Y-117602000D02*
X174438000Y-116272000D01*
X174438000Y-116272000D02*
X175768000Y-116272000D01*
G04 #@! TO.C,U0*
X183658000Y-95952000D02*
X182008000Y-95952000D01*
X182008000Y-95952000D02*
X182008000Y-131632000D01*
X182008000Y-131632000D02*
X187308000Y-131632000D01*
X187308000Y-131632000D02*
X187308000Y-95952000D01*
X187308000Y-95952000D02*
X185658000Y-95952000D01*
X185658000Y-95952000D02*
G75*
G02*
X183658000Y-95952000I-1000000J0D01*
G01*
G04 #@! TO.C,U1*
X223376000Y-95952000D02*
X221726000Y-95952000D01*
X223376000Y-131632000D02*
X223376000Y-95952000D01*
X218076000Y-131632000D02*
X223376000Y-131632000D01*
X218076000Y-95952000D02*
X218076000Y-131632000D01*
X219726000Y-95952000D02*
X218076000Y-95952000D01*
X221726000Y-95952000D02*
G75*
G02*
X219726000Y-95952000I-1000000J0D01*
G01*
G04 #@! TO.C,R1*
X228854000Y-131294000D02*
X228854000Y-130524000D01*
X228854000Y-123214000D02*
X228854000Y-123984000D01*
X230224000Y-130524000D02*
X230224000Y-123984000D01*
X227484000Y-130524000D02*
X230224000Y-130524000D01*
X227484000Y-123984000D02*
X227484000Y-130524000D01*
X230224000Y-123984000D02*
X227484000Y-123984000D01*
G04 #@! TO.C,R2*
X230224000Y-98584000D02*
X227484000Y-98584000D01*
X227484000Y-98584000D02*
X227484000Y-105124000D01*
X227484000Y-105124000D02*
X230224000Y-105124000D01*
X230224000Y-105124000D02*
X230224000Y-98584000D01*
X228854000Y-97814000D02*
X228854000Y-98584000D01*
X228854000Y-105894000D02*
X228854000Y-105124000D01*
G04 #@! TO.C,R3*
X228854000Y-118594000D02*
X228854000Y-117824000D01*
X228854000Y-110514000D02*
X228854000Y-111284000D01*
X230224000Y-117824000D02*
X230224000Y-111284000D01*
X227484000Y-117824000D02*
X230224000Y-117824000D01*
X227484000Y-111284000D02*
X227484000Y-117824000D01*
X230224000Y-111284000D02*
X227484000Y-111284000D01*
G04 #@! TO.C,U2*
X194422000Y-90932000D02*
G75*
G03*
X194422000Y-90932000I-2550000J0D01*
G01*
X192772000Y-90932000D02*
G75*
G03*
X192772000Y-90932000I-900000J0D01*
G01*
X191142000Y-93382000D02*
X191142000Y-137222000D01*
X191142000Y-137222000D02*
X214242000Y-137222000D01*
X214242000Y-137222000D02*
X214242000Y-86622000D01*
X214242000Y-86622000D02*
X191142000Y-86622000D01*
X191142000Y-86622000D02*
X191142000Y-88482000D01*
X193422000Y-86622000D02*
X193422000Y-88882000D01*
X190122000Y-98552000D02*
X190122000Y-96012000D01*
G04 #@! TO.C,U0*
D10*
X180943714Y-133084380D02*
X180943714Y-132084380D01*
X181277047Y-132798666D01*
X181610380Y-132084380D01*
X181610380Y-133084380D01*
X182658000Y-132989142D02*
X182610380Y-133036761D01*
X182467523Y-133084380D01*
X182372285Y-133084380D01*
X182229428Y-133036761D01*
X182134190Y-132941523D01*
X182086571Y-132846285D01*
X182038952Y-132655809D01*
X182038952Y-132512952D01*
X182086571Y-132322476D01*
X182134190Y-132227238D01*
X182229428Y-132132000D01*
X182372285Y-132084380D01*
X182467523Y-132084380D01*
X182610380Y-132132000D01*
X182658000Y-132179619D01*
X183086571Y-133084380D02*
X183086571Y-132084380D01*
X183467523Y-132084380D01*
X183562761Y-132132000D01*
X183610380Y-132179619D01*
X183658000Y-132274857D01*
X183658000Y-132417714D01*
X183610380Y-132512952D01*
X183562761Y-132560571D01*
X183467523Y-132608190D01*
X183086571Y-132608190D01*
X184038952Y-132179619D02*
X184086571Y-132132000D01*
X184181809Y-132084380D01*
X184419904Y-132084380D01*
X184515142Y-132132000D01*
X184562761Y-132179619D01*
X184610380Y-132274857D01*
X184610380Y-132370095D01*
X184562761Y-132512952D01*
X183991333Y-133084380D01*
X184610380Y-133084380D01*
X184943714Y-132084380D02*
X185562761Y-132084380D01*
X185229428Y-132465333D01*
X185372285Y-132465333D01*
X185467523Y-132512952D01*
X185515142Y-132560571D01*
X185562761Y-132655809D01*
X185562761Y-132893904D01*
X185515142Y-132989142D01*
X185467523Y-133036761D01*
X185372285Y-133084380D01*
X185086571Y-133084380D01*
X184991333Y-133036761D01*
X184943714Y-132989142D01*
X185943714Y-133036761D02*
X186086571Y-133084380D01*
X186324666Y-133084380D01*
X186419904Y-133036761D01*
X186467523Y-132989142D01*
X186515142Y-132893904D01*
X186515142Y-132798666D01*
X186467523Y-132703428D01*
X186419904Y-132655809D01*
X186324666Y-132608190D01*
X186134190Y-132560571D01*
X186038952Y-132512952D01*
X185991333Y-132465333D01*
X185943714Y-132370095D01*
X185943714Y-132274857D01*
X185991333Y-132179619D01*
X186038952Y-132132000D01*
X186134190Y-132084380D01*
X186372285Y-132084380D01*
X186515142Y-132132000D01*
X187467523Y-133084380D02*
X186896095Y-133084380D01*
X187181809Y-133084380D02*
X187181809Y-132084380D01*
X187086571Y-132227238D01*
X186991333Y-132322476D01*
X186896095Y-132370095D01*
X187800857Y-132084380D02*
X188467523Y-132084380D01*
X188038952Y-133084380D01*
G04 #@! TO.C,U1*
X217011714Y-133084380D02*
X217011714Y-132084380D01*
X217345047Y-132798666D01*
X217678380Y-132084380D01*
X217678380Y-133084380D01*
X218726000Y-132989142D02*
X218678380Y-133036761D01*
X218535523Y-133084380D01*
X218440285Y-133084380D01*
X218297428Y-133036761D01*
X218202190Y-132941523D01*
X218154571Y-132846285D01*
X218106952Y-132655809D01*
X218106952Y-132512952D01*
X218154571Y-132322476D01*
X218202190Y-132227238D01*
X218297428Y-132132000D01*
X218440285Y-132084380D01*
X218535523Y-132084380D01*
X218678380Y-132132000D01*
X218726000Y-132179619D01*
X219154571Y-133084380D02*
X219154571Y-132084380D01*
X219535523Y-132084380D01*
X219630761Y-132132000D01*
X219678380Y-132179619D01*
X219726000Y-132274857D01*
X219726000Y-132417714D01*
X219678380Y-132512952D01*
X219630761Y-132560571D01*
X219535523Y-132608190D01*
X219154571Y-132608190D01*
X220106952Y-132179619D02*
X220154571Y-132132000D01*
X220249809Y-132084380D01*
X220487904Y-132084380D01*
X220583142Y-132132000D01*
X220630761Y-132179619D01*
X220678380Y-132274857D01*
X220678380Y-132370095D01*
X220630761Y-132512952D01*
X220059333Y-133084380D01*
X220678380Y-133084380D01*
X221011714Y-132084380D02*
X221630761Y-132084380D01*
X221297428Y-132465333D01*
X221440285Y-132465333D01*
X221535523Y-132512952D01*
X221583142Y-132560571D01*
X221630761Y-132655809D01*
X221630761Y-132893904D01*
X221583142Y-132989142D01*
X221535523Y-133036761D01*
X221440285Y-133084380D01*
X221154571Y-133084380D01*
X221059333Y-133036761D01*
X221011714Y-132989142D01*
X222011714Y-133036761D02*
X222154571Y-133084380D01*
X222392666Y-133084380D01*
X222487904Y-133036761D01*
X222535523Y-132989142D01*
X222583142Y-132893904D01*
X222583142Y-132798666D01*
X222535523Y-132703428D01*
X222487904Y-132655809D01*
X222392666Y-132608190D01*
X222202190Y-132560571D01*
X222106952Y-132512952D01*
X222059333Y-132465333D01*
X222011714Y-132370095D01*
X222011714Y-132274857D01*
X222059333Y-132179619D01*
X222106952Y-132132000D01*
X222202190Y-132084380D01*
X222440285Y-132084380D01*
X222583142Y-132132000D01*
X223535523Y-133084380D02*
X222964095Y-133084380D01*
X223249809Y-133084380D02*
X223249809Y-132084380D01*
X223154571Y-132227238D01*
X223059333Y-132322476D01*
X222964095Y-132370095D01*
X223868857Y-132084380D02*
X224535523Y-132084380D01*
X224106952Y-133084380D01*
G04 #@! TO.C,R1*
X226031619Y-124706380D02*
X226031619Y-124134952D01*
X226031619Y-124420666D02*
X227031619Y-124420666D01*
X226888761Y-124325428D01*
X226793523Y-124230190D01*
X226745904Y-124134952D01*
X227031619Y-125325428D02*
X227031619Y-125420666D01*
X226984000Y-125515904D01*
X226936380Y-125563523D01*
X226841142Y-125611142D01*
X226650666Y-125658761D01*
X226412571Y-125658761D01*
X226222095Y-125611142D01*
X226126857Y-125563523D01*
X226079238Y-125515904D01*
X226031619Y-125420666D01*
X226031619Y-125325428D01*
X226079238Y-125230190D01*
X226126857Y-125182571D01*
X226222095Y-125134952D01*
X226412571Y-125087333D01*
X226650666Y-125087333D01*
X226841142Y-125134952D01*
X226936380Y-125182571D01*
X226984000Y-125230190D01*
X227031619Y-125325428D01*
X226031619Y-126087333D02*
X227031619Y-126087333D01*
X226412571Y-126182571D02*
X226031619Y-126468285D01*
X226698285Y-126468285D02*
X226317333Y-126087333D01*
X226031619Y-127801619D02*
X226079238Y-127706380D01*
X226126857Y-127658761D01*
X226222095Y-127611142D01*
X226507809Y-127611142D01*
X226603047Y-127658761D01*
X226650666Y-127706380D01*
X226698285Y-127801619D01*
X226698285Y-127944476D01*
X226650666Y-128039714D01*
X226603047Y-128087333D01*
X226507809Y-128134952D01*
X226222095Y-128134952D01*
X226126857Y-128087333D01*
X226079238Y-128039714D01*
X226031619Y-127944476D01*
X226031619Y-127801619D01*
X226031619Y-128563523D02*
X227031619Y-128563523D01*
X226031619Y-128992095D02*
X226555428Y-128992095D01*
X226650666Y-128944476D01*
X226698285Y-128849238D01*
X226698285Y-128706380D01*
X226650666Y-128611142D01*
X226603047Y-128563523D01*
X226031619Y-129468285D02*
X226698285Y-129468285D01*
X226603047Y-129468285D02*
X226650666Y-129515904D01*
X226698285Y-129611142D01*
X226698285Y-129754000D01*
X226650666Y-129849238D01*
X226555428Y-129896857D01*
X226031619Y-129896857D01*
X226555428Y-129896857D02*
X226650666Y-129944476D01*
X226698285Y-130039714D01*
X226698285Y-130182571D01*
X226650666Y-130277809D01*
X226555428Y-130325428D01*
X226031619Y-130325428D01*
G04 #@! TO.C,R2*
X226031619Y-99306380D02*
X226031619Y-98734952D01*
X226031619Y-99020666D02*
X227031619Y-99020666D01*
X226888761Y-98925428D01*
X226793523Y-98830190D01*
X226745904Y-98734952D01*
X227031619Y-99925428D02*
X227031619Y-100020666D01*
X226984000Y-100115904D01*
X226936380Y-100163523D01*
X226841142Y-100211142D01*
X226650666Y-100258761D01*
X226412571Y-100258761D01*
X226222095Y-100211142D01*
X226126857Y-100163523D01*
X226079238Y-100115904D01*
X226031619Y-100020666D01*
X226031619Y-99925428D01*
X226079238Y-99830190D01*
X226126857Y-99782571D01*
X226222095Y-99734952D01*
X226412571Y-99687333D01*
X226650666Y-99687333D01*
X226841142Y-99734952D01*
X226936380Y-99782571D01*
X226984000Y-99830190D01*
X227031619Y-99925428D01*
X226031619Y-100687333D02*
X227031619Y-100687333D01*
X226412571Y-100782571D02*
X226031619Y-101068285D01*
X226698285Y-101068285D02*
X226317333Y-100687333D01*
X226031619Y-102401619D02*
X226079238Y-102306380D01*
X226126857Y-102258761D01*
X226222095Y-102211142D01*
X226507809Y-102211142D01*
X226603047Y-102258761D01*
X226650666Y-102306380D01*
X226698285Y-102401619D01*
X226698285Y-102544476D01*
X226650666Y-102639714D01*
X226603047Y-102687333D01*
X226507809Y-102734952D01*
X226222095Y-102734952D01*
X226126857Y-102687333D01*
X226079238Y-102639714D01*
X226031619Y-102544476D01*
X226031619Y-102401619D01*
X226031619Y-103163523D02*
X227031619Y-103163523D01*
X226031619Y-103592095D02*
X226555428Y-103592095D01*
X226650666Y-103544476D01*
X226698285Y-103449238D01*
X226698285Y-103306380D01*
X226650666Y-103211142D01*
X226603047Y-103163523D01*
X226031619Y-104068285D02*
X226698285Y-104068285D01*
X226603047Y-104068285D02*
X226650666Y-104115904D01*
X226698285Y-104211142D01*
X226698285Y-104354000D01*
X226650666Y-104449238D01*
X226555428Y-104496857D01*
X226031619Y-104496857D01*
X226555428Y-104496857D02*
X226650666Y-104544476D01*
X226698285Y-104639714D01*
X226698285Y-104782571D01*
X226650666Y-104877809D01*
X226555428Y-104925428D01*
X226031619Y-104925428D01*
G04 #@! TO.C,R3*
X226031619Y-112006380D02*
X226031619Y-111434952D01*
X226031619Y-111720666D02*
X227031619Y-111720666D01*
X226888761Y-111625428D01*
X226793523Y-111530190D01*
X226745904Y-111434952D01*
X227031619Y-112625428D02*
X227031619Y-112720666D01*
X226984000Y-112815904D01*
X226936380Y-112863523D01*
X226841142Y-112911142D01*
X226650666Y-112958761D01*
X226412571Y-112958761D01*
X226222095Y-112911142D01*
X226126857Y-112863523D01*
X226079238Y-112815904D01*
X226031619Y-112720666D01*
X226031619Y-112625428D01*
X226079238Y-112530190D01*
X226126857Y-112482571D01*
X226222095Y-112434952D01*
X226412571Y-112387333D01*
X226650666Y-112387333D01*
X226841142Y-112434952D01*
X226936380Y-112482571D01*
X226984000Y-112530190D01*
X227031619Y-112625428D01*
X226031619Y-113387333D02*
X227031619Y-113387333D01*
X226412571Y-113482571D02*
X226031619Y-113768285D01*
X226698285Y-113768285D02*
X226317333Y-113387333D01*
X226031619Y-115101619D02*
X226079238Y-115006380D01*
X226126857Y-114958761D01*
X226222095Y-114911142D01*
X226507809Y-114911142D01*
X226603047Y-114958761D01*
X226650666Y-115006380D01*
X226698285Y-115101619D01*
X226698285Y-115244476D01*
X226650666Y-115339714D01*
X226603047Y-115387333D01*
X226507809Y-115434952D01*
X226222095Y-115434952D01*
X226126857Y-115387333D01*
X226079238Y-115339714D01*
X226031619Y-115244476D01*
X226031619Y-115101619D01*
X226031619Y-115863523D02*
X227031619Y-115863523D01*
X226031619Y-116292095D02*
X226555428Y-116292095D01*
X226650666Y-116244476D01*
X226698285Y-116149238D01*
X226698285Y-116006380D01*
X226650666Y-115911142D01*
X226603047Y-115863523D01*
X226031619Y-116768285D02*
X226698285Y-116768285D01*
X226603047Y-116768285D02*
X226650666Y-116815904D01*
X226698285Y-116911142D01*
X226698285Y-117054000D01*
X226650666Y-117149238D01*
X226555428Y-117196857D01*
X226031619Y-117196857D01*
X226555428Y-117196857D02*
X226650666Y-117244476D01*
X226698285Y-117339714D01*
X226698285Y-117482571D01*
X226650666Y-117577809D01*
X226555428Y-117625428D01*
X226031619Y-117625428D01*
G04 #@! TD*
M02*
