M48
; DRILL file {KiCad (5.1.8)-1} date 11/09/21 16:08:24
; FORMAT={-:-/ absolute / inch / decimal}
; #@! TF.CreationDate,2021-11-09T16:08:24-07:00
; #@! TF.GenerationSoftware,Kicad,Pcbnew,(5.1.8)-1
; #@! TF.FileFunction,Plated,1,2,PTH
FMAT,2
INCH
T1C0.0157
T2C0.0315
T3C0.0394
%
G90
G05
T1
X7.2Y-4.63
X7.25Y-4.83
X7.87Y-3.83
X7.98Y-4.13
X8.71Y-4.28
T2
X8.54Y-3.83
X8.54Y-3.93
X8.54Y-4.03
X8.54Y-4.13
X8.54Y-4.23
X8.54Y-4.33
X8.54Y-4.43
X8.54Y-4.53
X8.54Y-4.63
X8.54Y-4.73
X8.54Y-4.83
X8.54Y-4.93
X8.54Y-5.03
X8.54Y-5.13
X8.84Y-3.83
X8.84Y-3.93
X8.84Y-4.03
X8.84Y-4.13
X8.84Y-4.23
X8.84Y-4.33
X8.84Y-4.43
X8.84Y-4.53
X8.84Y-4.63
X8.84Y-4.73
X8.84Y-4.83
X8.84Y-4.93
X8.84Y-5.03
X8.84Y-5.13
X7.12Y-3.83
X7.12Y-3.93
X7.12Y-4.03
X7.12Y-4.13
X7.12Y-4.23
X7.12Y-4.33
X7.12Y-4.43
X7.12Y-4.53
X7.12Y-4.63
X7.12Y-4.73
X7.12Y-4.83
X7.12Y-4.93
X7.12Y-5.03
X7.12Y-5.13
X7.42Y-3.83
X7.42Y-3.93
X7.42Y-4.03
X7.42Y-4.13
X7.42Y-4.23
X7.42Y-4.33
X7.42Y-4.43
X7.42Y-4.53
X7.42Y-4.63
X7.42Y-4.73
X7.42Y-4.83
X7.42Y-4.93
X7.42Y-5.03
X7.42Y-5.13
X9.01Y-4.31
X9.01Y-4.71
X9.01Y-3.81
X9.01Y-4.21
X9.01Y-4.81
X9.01Y-5.21
T3
X6.92Y-4.63
X6.92Y-4.73
X6.92Y-4.83
X6.92Y-4.93
X6.92Y-5.03
X6.92Y-5.13
X7.68Y-3.83
X7.68Y-3.93
X7.68Y-4.03
X7.68Y-4.13
X7.68Y-4.23
X7.68Y-4.33
X7.68Y-4.43
X7.68Y-4.53
X7.68Y-4.63
X7.68Y-4.73
X7.68Y-4.83
X7.68Y-4.93
X7.68Y-5.03
X7.68Y-5.13
X8.28Y-3.83
X8.28Y-3.93
X8.28Y-4.03
X8.28Y-4.13
X8.28Y-4.23
X8.28Y-4.33
X8.28Y-4.43
X8.28Y-4.53
X8.28Y-4.63
X8.28Y-4.73
X8.28Y-4.83
X8.28Y-4.93
X8.28Y-5.03
X8.28Y-5.13
T0
M30
